<?xml version="1.0" encoding="utf-8"?>
<!-- Generator: Adobe Illustrator 16.0.0, SVG Export Plug-In . SVG Version: 6.00 Build 0)  -->
<!DOCTYPE svg PUBLIC "-//W3C//DTD SVG 1.1//EN" "http://www.w3.org/Graphics/SVG/1.1/DTD/svg11.dtd">
<svg version="1.1" id="Capa_1" xmlns="http://www.w3.org/2000/svg" xmlns:xlink="http://www.w3.org/1999/xlink" x="0px" y="0px"
	 width="340px" height="150px" viewBox="0 0 340 150" enable-background="new 0 0 340 150" xml:space="preserve">
<path fill="#FFFFFF" d="M98.308,119.459l-7.247,2.724l-2.519,7.303L98.308,119.459z M103.083,111.766l-7.51,5.772l-4.042,4.139
	l7.263-2.729L103.083,111.766z M106.895,102.081l-7.644,4.626l4.315,4.174L106.895,102.081z M99.021,106.485l6.993-4.23
	l-8.568,2.707L99.021,106.485z M86.863,101.679l1.223,0.627l4.428-1.688L88.42,96.66L86.863,101.679z M76.418,96.319l10.168,5.218
	l1.554-5.011L76.418,96.319z M77.3,97.116l8.646,6.483l0.548-1.766L77.3,97.116z M89.971,107.001l-3.86-2.895l-1.414,4.562
	L89.971,107.001z M93.381,109.558l-3.106-2.33l-5.036,1.592L93.381,109.558z M107.677,73.588l-2.573,3.066l0.571,0.55
	L107.677,73.588z M96.15,87.32l1.689,3.547l0.404-6.041L96.15,87.32z M104.934,79.177l4.074,1.656l-3.258-3.131L104.934,79.177z
	 M103.481,78.587l1.166,0.474l0.874-1.578l-0.616-0.593L103.481,78.587z M89.687,72.978l9.103,3.701l0.349-5.203L89.687,72.978z
	 M94.692,89.057l2.878,1.96l-1.638-3.438L94.692,89.057z M94.237,89.121l-5.378-3.662l-0.344,10.478L94.237,89.121z M93.837,110.191
	l-4.394,7.684l5.843-0.587L93.837,110.191z M97.155,105.108l-2.746,4.168l4.34-2.626L97.155,105.108z M98.25,91.596l3.985,5.168
	l2.49-5.666L98.25,91.596z M104.871,90.779l4.351-8.889l-10.814,9.386L104.871,90.779z M107.018,101.614l-2.101-10.185l-2.504,5.697
	c-0.006,0.012-0.013,0.023-0.021,0.033l-0.031,0.048v0.001h-0.001l-4.891,7.423L107.018,101.614z M109.429,82.167l-4.298,8.779
	l2.026,9.822L109.429,82.167z M108.487,72.759l-2.583,4.665l3.582,3.442L108.487,72.759z M97.653,91.447l-3.16-2.152l-5.54,6.6
	L97.653,91.447z M102.023,96.994L97.91,91.66l-9.302,4.755l4.223,4.083L102.023,96.994z M97.103,104.629l4.779-7.252l-8.807,3.356
	L97.103,104.629z M85.828,118.238l-1.321-1.041l-1.751,1.35L85.828,118.238z M87.933,119.894l-1.757-1.383l-3.724,0.374l2.441,6.323
	L87.933,119.894z M90.664,122.045l-2.486-1.958l-2.895,5.062L90.664,122.045z M88.332,119.817l2.592,2.041l4.142-4.239l-5.81,0.583
	L88.332,119.817z M86.617,118.467l1.471,1.157l0.792-1.385L86.617,118.467z M84.758,117.003l1.512,1.189l2.797-0.28l4.324-7.562
	L84.758,117.003z M83.012,116.02l-0.531,2.351l1.777-1.37L83.012,116.02z M57.735,128.23l-2.462-1.67l-3.466,3.656L57.735,128.23z
	 M88.647,82.562l-2.003,1.016l1.926,1.312L88.647,82.562z M92.59,80.561l-3.63,1.843l-0.089,2.69l5.564,3.789l1.352-1.609
	L92.59,80.561z M103.147,75.202l-3.555,1.805l3.589,1.459l1.501-1.788L103.147,75.202z M107.98,72.749l-4.542,2.306l1.442,1.387
	L107.98,72.749z M103.203,74.829l5.197-2.638l-1.629-8.779l-7.259,7.869L103.203,74.829z M99.216,76.853l3.697-1.877l-3.478-3.343
	l-0.346,5.168L99.216,76.853z M104.128,80.632l4.556,0.402l-3.9-1.586L104.128,80.632z M101.928,80.437l1.866,0.165l0.703-1.27
	l-1.224-0.498L101.928,80.437z M98.864,80.167l2.689,0.237l1.42-1.69l-3.744-1.522l-0.172,0.087L98.864,80.167z M94.182,79.752
	l4.376,0.387l0.181-2.699L94.182,79.752z M92.474,79.602l1.13,0.1l5.158-2.619l0.006-0.079l-9.341-3.798L92.474,79.602z
	 M89.062,79.3l3.056,0.27l-2.867-6.02L89.062,79.3z M79.521,78.457l9.233,0.816l0.199-6.093L79.521,78.457z M88.744,79.582
	l-9.158-0.81l6.769,4.608l2.304-1.169L88.744,79.582z M92.271,79.893l-3.221-0.284l-0.08,2.443l3.486-1.77L92.271,79.893z
	 M93.084,79.964l-0.456-0.04l0.104,0.219L93.084,79.964z M98.537,80.447l-4.874-0.431l-0.799,0.405l3.141,6.593l2.273-2.709
	L98.537,80.447z M101.312,80.692l-2.468-0.218l-0.229,3.432L101.312,80.692z M103.63,80.897l-1.943-0.172l-3.106,3.701l-0.427,6.361
	L103.63,80.897z M109.317,81.4l-5.353-0.473L98.51,90.78L109.317,81.4z M96.047,69.044l3.224,2.046l6.917-7.447L96.047,69.044z
	 M87.453,63.956l-0.407-0.258l-20.212,0.512l22.087,8.464L87.453,63.956z M98.878,71.206l-3.131-1.986l-5.844,3.413L98.878,71.206z
	 M91.193,106.615l-3.215-4.019l-1.207-0.62l-0.564,1.819l4.124,3.092L91.193,106.615z M93.031,108.912l-1.631-2.039l-0.766,0.242
	L93.031,108.912z M103.244,111.254l-9.144-1.312l1.472,7.209L103.244,111.254z M94.354,109.668l8.825,1.266l-4.201-4.063
	L94.354,109.668z M91.714,106.774l2.18,2.726l2.843-4.313L91.714,106.774z M88.329,102.543l3.178,3.972l5.354-1.692l-4.104-3.968
	L88.329,102.543z M79.465,87.222l8.74,8.793l0.354-10.762l-2.227-1.517L79.465,87.222z M79.05,87.026l-0.187-8.197l-13.94,8.005
	L79.05,87.026z M79.171,78.862l0.184,8.072l6.688-3.395L79.171,78.862z M66.593,64.447l12.45,13.926l9.712-5.434L66.593,64.447z
	 M78.77,78.527L66.182,64.448l-1.647,22.253L78.77,78.527z M84.03,31.5l0.051,6.764l9.183-4.918L84.03,31.5z M83.963,22.583
	l0.064,8.604l9.025,1.808L83.963,22.583z M79.265,87.458l-3.283,8.546l11.99,0.212L79.265,87.458z M82.462,128.189l5.314,1.616
	l-2.928-4.003L82.462,128.189z M84.384,125.831l-5.592,1.243l3.336,1.014L84.384,125.831z M77.923,126.958l-2.904-3.77l-4.265,5.563
	L77.923,126.958z M70.62,129.173L74.064,136l3.854-8.721L70.62,129.173z M69.973,129.024l-6.317-2.377l-1.106,4.304L69.973,129.024z
	 M65.792,132.527l3.792-3.084l-6.782,1.76L65.792,132.527z M62.427,131.374l-1.861,5.403l4.958-4.032L62.427,131.374z
	 M74.604,123.222l-10.577,3.236l6.284,2.364L74.604,123.222z M75.989,96.763l1.788,14.622l6.449-2.554L75.989,96.763z
	 M77.652,111.893l-4.017,6.675l1.466,4.142l6.918-4.009L77.652,111.893z M77.26,111.557l-6.269-3.567l-2.588,6.205L77.26,111.557z
	 M71.11,107.704l6.349,3.613L75.678,96.75L71.11,107.704z M66.145,104.877l4.696,2.673l4.52-10.837L66.145,104.877z M60.942,101.917
	l4.92,2.8l9.17-8.124L60.942,101.917z M39.957,125.449l-4.776-0.163l5.973,1.897L39.957,125.449z M45.737,128.639l0.049-2.992
	l-5.447-0.186l1.292,1.873L45.737,128.639z M45.966,133.395l4.925-2.797l-4.854-1.542L45.966,133.395z M46.091,125.851l-0.048,2.885
	l4.639,1.474L46.091,125.851z M51.189,130.268l1.129-4.273l-5.967-0.32L51.189,130.268z M55.237,126.152l-0.021-0.002l0.014,0.01
	L55.237,126.152z M62.736,126.553l-7.096-0.38l-0.153,0.161l2.614,1.772L62.736,126.553z M62.241,130.916l1.089-4.236l-4.909,1.645
	L62.241,130.916z M56.42,133.71l3.753,3.261l1.907-5.537L56.42,133.71z M51.625,130.602l4.52,2.887l5.866-2.358l-3.956-2.684
	L51.625,130.602z M52.632,126.011l-1.058,4.005l3.441-3.631l-0.394-0.267L52.632,126.011z M52.911,124.958l-0.198,0.75l1.416,0.076
	L52.911,124.958z M53.699,121.976l-0.705,2.667l1.729,1.173l0.792,0.042l3.949-4.167L53.699,121.976z M59.586,121.377l-3.878-7.006
	l-1.927,7.292L59.586,121.377z M63.228,126.272l-3.401-4.516l-3.908,4.123L63.228,126.272z M63.505,126.128l1.518-3.972
	l-4.851-0.453L63.505,126.128z M65.341,122.186l-1.535,4.019l10.424-3.188L65.341,122.186z M66.053,120.323l-0.599,1.565
	l9.338,0.872l-1.426-4.03L66.053,120.323z M68.254,114.561l-2.069,5.418l7.185-1.565l3.942-6.551L68.254,114.561z M59.959,114.28
	l-4.036-0.153l3.784,6.836L59.959,114.28z M60.842,121.458l4.294,0.4l0.558-1.458L60.842,121.458z M67.916,114.581l-7.649-0.289
	L60,121.326l5.824-1.269L67.916,114.581z M65.619,104.932l-4.894-2.785l-0.278,7.367L65.619,104.932z M60.277,113.984l7.759,0.294
	l2.686-6.441l-4.82-2.744l-5.471,4.847L60.277,113.984z M56.045,113.824l3.926,0.148l0.142-3.751L56.045,113.824z M60.395,102.752
	l-4.347,10.659l4.081-3.615L60.395,102.752z M62.549,93.495l1.597-6.299l-4.114,1.105l-10.296,2.767L62.549,93.495z M49.537,91.343
	l10.959,10.255l1.978-7.805L49.537,91.343z M30.98,108.475l13.037-12.698l-18.289-6.929L30.98,108.475z M49.144,91.395l-1.106,5.576
	l11.872,4.497L49.144,91.395z M48.528,91.813l-3.95,3.848l1.77,0.67L48.528,91.813z M47.744,96.86l0.916-4.611l-2.023,4.191
	L47.744,96.86z M51.512,111.506l4.067,2.238l4.558-11.175L51.512,111.506z M45.778,108.351l5.454,3.001l9.076-9.403l-12.332-4.672
	L45.778,108.351z M52.725,124.459l0.651-2.468l-3.998,0.197L52.725,124.459z M48.938,122.262l-2.674,3.1l6.136,0.329l0.241-0.917
	L48.938,122.262z M47.505,116.916l-1.654,0.567l2.722,3.833L47.505,116.916z M55.435,114.202l-7.637,2.614l1.232,5.082l4.429-0.218
	L55.435,114.202z M47.725,116.515l7.553-2.585l-3.987-2.194l-3.776,3.911L47.725,116.515z M46.159,117.051l1.273-0.436l-0.172-0.706
	L46.159,117.051z M47.428,115.293l3.583-3.712l-5.174-2.847L47.428,115.293z M45.76,109.719v7.303l1.416-1.467L45.76,109.719z
	 M39.071,112.36l6.38,4.737v-8.4L39.071,112.36z M39.146,111.963l6.321-3.63l2.216-11.167l-1.181-0.448L39.146,111.963z
	 M31.168,108.721l7.551,3.421l7.495-15.533l-1.879-0.712L31.168,108.721z M31.31,109.125l4.779,7.447l2.482-4.158L31.31,109.125z
	 M45.102,117.221l-6.265-4.652l-2.481,4.155L45.102,117.221z M36.309,117.03l1.492,4.665l7.277-4.167L36.309,117.03z M48.61,121.901
	l-3.05-4.294l-7.282,4.17L48.61,121.901z M45.9,125.313l2.679-3.105l-10.105-0.122L45.9,125.313z M40.122,125.147l5.018,0.171
	l-6.995-3.039L40.122,125.147z M37.684,122.153l-3.219,2.801l5.274,0.18L37.684,122.153z M31.677,117.81l2.463,7.019l3.324-2.894
	L31.677,117.81z M31.195,117.006l-0.17-3.113l-7.474-4.647L31.195,117.006z M31.344,114.091l0.177,3.229l5.904,4.209l-1.461-4.564
	L31.344,114.091z M31.084,109.343l0.239,4.373l4.272,2.656L31.084,109.343z M30.753,108.917l-7.643-0.309l7.895,4.91L30.753,108.917
	z M25.545,89.353l-2.833,18.932l7.984,0.322L25.545,89.353z M59.326,63.06l-2.265,6.273l8.562-5.177L59.326,63.06z M64.15,49.692
	l-4.719,13.074l6.445,1.122L64.15,49.692z M35.642,82.287l-2.982-2l-6.445,7.701L35.642,82.287z M48.636,74.789l-3.55,2.146
	l3.613,1.851L48.636,74.789z M52.603,80.785l3.875-10.738l-7.537,4.559l0.068,4.339L52.603,80.785z M49.187,90.252l3.312-9.177
	l-3.484-1.784L49.187,90.252z M39.41,80.368l9.476,10.324l-0.182-11.559l-3.927-2.012L39.41,80.368z M38.07,73.341l10.014-11.964
	l-19.367,7.174L38.07,73.341z M29.028,69.055l6.605,7.197l2.234-2.67L29.028,69.055z M38.93,80.298l-3.285-3.579l-2.787,3.33
	l3.074,2.063L38.93,80.298z M48.061,90.248l-8.919-9.718l-2.928,1.771L48.061,90.248z M48.704,91.212l-22.032-2.336l17.589,6.663
	L48.704,91.212z M25.973,88.493l22.472,2.383l-12.521-8.399L25.973,88.493z M24.992,74.593l-0.125-4.929l-5.276,1.484l5.332,3.577
	L24.992,74.593z M25.344,88.426l-0.335-13.2l-6.512,12.458L25.344,88.426z M25.319,75.363l0.326,12.824l6.757-8.073L25.319,75.363z
	 M25.302,74.665l0.008,0.321l7.291,4.891l2.834-3.386l-7.064-7.697L25.302,74.665z M25.172,69.579l0.113,4.454l2.749-5.26
	L25.172,69.579z M32.723,53.079l-7.99-0.815l0.432,16.998l3.048-0.858L32.723,53.079z M48.193,61.008l-15.176-7.842l-4.447,15.11
	L48.193,61.008z M41.844,40.668l-8.692,12.221l15.161,7.835L41.844,40.668z M41.662,40.392l-9.021-4.11l0.423,16.198L41.662,40.392z
	 M59.124,62.713l4.778-13.24L48.946,60.94L59.124,62.713z M48.935,74.248l7.71-4.661l2.374-6.579L48.73,61.215L48.935,74.248z
	 M38.149,73.727l-2.306,2.754l3.354,3.655l5.257-3.18L38.149,73.727z M48.427,61.447L38.352,73.486l6.412,3.284l3.867-2.338
	L48.427,61.447z M63.915,49.076L42.142,40.59l6.512,20.187L63.915,49.076z M60.943,27.213l-17.668-3.908l8.39,10.207L60.943,27.213z
	 M64.002,48.518l-2.798-21.111l-9.343,6.343L64.002,48.518z M98.33,55.622l3.39-6.243l-6.938,2.891L98.33,55.622z M90.103,65.637
	l-0.742,6.507l2.817-5.189L90.103,65.637z M90.333,63.615l-0.192,1.682l2.185,1.386l1.717-3.162L90.333,63.615z M91.47,53.65
	l-1.102,9.656l3.843-0.098l3.967-7.308l-3.706-3.502L91.47,53.65z M73.71,45.61l0.802-1.892L66,48.258L73.71,45.61z M70.619,52.907
	l2.93-6.916l-8.971,3.082L70.619,52.907z M64.417,49.336l1.721,14.148l4.359-10.29L64.417,49.336z M74.046,35.819l-9.303,12.762
	l9.959-5.313l2.314-5.465L74.046,35.819z M78.614,30.185l-0.171-0.398l-0.235,0.323L78.614,30.185z M79.435,32.097l-0.675-1.573
	l-0.752-0.139l-3.78,5.186l2.912,1.944L79.435,32.097z M92.128,45.164l1.296-11.355l-9.179,8.388L92.128,45.164z M91.654,49.314
	l0.438-3.835l-7.474-2.814L91.654,49.314z M86.335,55.457l4.85-2.021l0.427-3.74l-7.427-7.018L86.335,55.457z M79.273,58.4
	l6.771-2.822l-2.183-12.967L73.773,54.909L79.273,58.4z M66.564,63.697l12.362-5.152l-5.351-3.396L66.564,63.697z M70.76,53.362
	l-4.148,9.792l6.703-8.171L70.76,53.362z M73.938,45.857l-3.057,7.217l2.63,1.669l9.982-12.169L73.938,45.857z M74.942,43.488
	l-0.842,1.987l9.513-3.269l-2.784-1.858L74.942,43.488z M77.277,37.977l-2.145,5.062l5.406-2.885L77.277,37.977z M82.452,39.133
	l-2.851-6.645l-2.202,5.199l3.447,2.302L82.452,39.133z M83.611,41.836l-1.037-2.42l-1.438,0.768L83.611,41.836z M79.123,30.591
	l0.478,1.113l0.402-0.95L79.123,30.591z M78.654,29.499l0.323,0.753l1.148,0.213l3.019-7.127L78.654,29.499z M73.972,35.4
	l3.701-5.077l-15.642-2.896L73.972,35.4z M61.521,27.457l2.807,21.175l9.464-12.982L61.521,27.457z M72.405,15.711L61.631,27.041
	l16.243,3.007l0.429-0.588L72.405,15.711z M43.289,22.994l17.804,3.938l-3.975-12.034L43.289,22.994z M51.41,33.685l-8.405-10.224
	l-0.938,16.566L51.41,33.685z M42.224,40.292l21.509,8.383L51.605,33.923L42.224,40.292z M32.725,35.982l9.03,4.114l0.938-16.565
	L32.725,35.982z M24.81,51.962l7.955,0.812l-0.421-16.107L24.81,51.962z M19.451,70.87l5.408-1.522l-0.413-16.232L19.451,70.87z
	 M18.451,87.108L24.779,75l-5.413-3.631L18.451,87.108z M22.51,107.555l2.816-18.821l-6.876-0.745L22.51,107.555z M33.547,124.069
	l-2.309-6.582l-7.564-7.68L33.547,124.069z M41.438,127.595l-6.516-2.069l10.246,7.479L41.438,127.595z M45.662,133.179l0.069-4.22
	l-3.815-1.212L45.662,133.179z M55.603,133.507l-4.335-2.77l-4.877,2.77H55.603z M59.661,136.934l-3.589-3.118H47.07L59.661,136.934
	z M65.839,132.884l-5.125,4.169l12.722-0.807L65.839,132.884z M73.742,136.045l-3.427-6.793l-0.017,0.004l-4.191,3.41
	L73.742,136.045z M81.882,128.333l-3.607-1.097l-3.727,8.431L81.882,128.333z M87.733,130.113l-5.518-1.678l-7.446,7.447
	L87.733,130.113z M85.093,125.614l3.03,4.144l2.535-7.354L85.093,125.614z M82.157,118.976l-6.91,4.004l3.004,3.899l6.408-1.425
	L82.157,118.976z M78.272,112.289l3.895,6.072l0.577-2.552L78.272,112.289z M84.248,109.155l-6.294,2.492l4.865,3.83L84.248,109.155
	z M76.41,96.833l8,11.722l1.439-4.644L76.41,96.833z M62.776,93.851l-1.974,7.788l14.392-5.437L62.776,93.851z M64.479,87.134
	l-1.626,6.418l12.811,2.426l3.321-8.646L64.479,87.134z M52.773,81.217l-3.483,9.651l7.487-2.012l7.157-1.923L52.773,81.217z
	 M65.879,64.362l-8.983,5.433l-4.018,11.132l11.345,5.811L65.879,64.362z M79.243,58.746l-12.37,5.156l19.707-0.5L79.243,58.746z
	 M86.096,55.889l-6.505,2.712l7.543,4.787l0.224-0.006L86.096,55.889z M90.058,63.314l1.087-9.528l-4.757,1.982l1.28,7.606
	L90.058,63.314z M89.852,65.113l0.171-1.491l-2.304,0.059l0.016,0.089L89.852,65.113z M89.088,71.812l0.726-6.358l-2.011-1.275
	L89.088,71.812z M92.438,67.119l-2.923,5.384l5.939-3.469L92.438,67.119z M94.396,63.511l-1.812,3.336l3.169,2.012l10.49-5.605
	L94.396,63.511z M98.409,56.12l-3.844,7.08l11.897-0.26L98.409,56.12z M102.017,49.475l-3.455,6.365l7.979,6.751L102.017,49.475z
	 M102.212,49.029l0.002,0.007l4.771,13.997l0.001,0.003c0.002,0.005,0.003,0.011,0.004,0.016l1.74,9.173l0.001,0.003v0.002
	l0.001,0.002l0,0v0.001v0.001l0.001,0.001v0.001v0.001l0.001,0.002l0,0v0.001v0.002l0,0v0.001l0.001,0.002l0,0v0.001v0.002
	l0.001,0.002v0.002l0,0v0.001l1.109,9.007l0.001,0.001v0.002l0,0v0.001v0.001v0.001v0.001v0.001v0.001h0.001v0.002v0.001l0,0v0.001
	v0.001v0.001v0.001v0.001v0.001l0,0v0.002v0.001l0,0v0.001v0.001v0.003v0.002v0.001v0.001l0,0v0.001v0.001l-0.001,0.002v0.001v0.001
	v0.001l0,0l-0.001,0.004V81.3l0,0l-2.495,20.437l-0.001,0.001v0.001v0.002v0.001v0.001v0.002h-0.001v0.001v0.002v0.001v0.001
	l-0.001,0.001v0.001v0.001v0.001l-0.001,0.001v0.001l-0.001,0.007l-0.001,0.001l0,0l-0.005,0.014l0,0v0.001l-0.001,0.002l0,0
	l-0.001,0.002l-3.565,9.426v0.001l-0.001,0.001l-0.001,0.002l-0.001,0.004l0,0l-0.003,0.006l-0.001,0.001v0.001l-0.001,0.002v0.001
	l-0.001,0.001l-0.001,0.001v0.001l-0.001,0.001l-0.001,0.002l-0.002,0.003l-0.001,0.001v0.002l-0.001,0.001l-4.726,7.913
	c-0.006,0.011-0.014,0.021-0.021,0.028l-10.727,11.013c-0.01,0.011-0.021,0.021-0.034,0.027l-0.001,0.001h-0.001l-0.001,0.001
	h-0.002c-0.005,0.003-0.011,0.006-0.017,0.008l-14.083,6.267c-0.021,0.011-0.043,0.017-0.066,0.018l-13.823,0.876
	c-0.011,0.001-0.021,0-0.031-0.001c-0.007-0.001-0.014-0.002-0.021-0.004l-14.431-3.574c-0.024-0.006-0.046-0.018-0.063-0.032
	l-11.726-8.558l0,0l-0.002-0.001l-0.001-0.002c-0.017-0.011-0.03-0.025-0.041-0.042l-0.001-0.002l-0.001-0.002l-11.524-16.646
	v-0.001l-0.009-0.011l-0.006-0.011l-0.003-0.005l-0.002-0.005v-0.001c-0.004-0.009-0.007-0.018-0.01-0.027v-0.002v-0.002
	l-4.277-20.618l-0.002-0.01v-0.001c-0.002-0.012-0.002-0.024-0.001-0.036l0.972-16.714c0.001-0.012,0.002-0.022,0.005-0.033
	l5.345-18.996l0.001-0.003l0.001-0.002v-0.002v-0.001l0.001-0.001v-0.003h0.001l0.001-0.002v-0.002l0.001-0.002l0.001-0.002l0,0
	v-0.002l0.001-0.001v-0.001l0.001-0.002l0.001-0.001v-0.001l0.001-0.002l0.001-0.001v-0.001l0.001-0.002l0.001-0.001v-0.001
	l7.905-16.047c0.007-0.014,0.015-0.026,0.024-0.037l10.386-12.972l0.002-0.003l0.002-0.001l0.001-0.001l0.001-0.002l0,0l0.001-0.001
	l0.002-0.001l0.001-0.002v-0.001h0.001l0.001-0.001l0.002-0.002c0.011-0.011,0.024-0.021,0.039-0.028l14.32-8.384
	c0.027-0.016,0.057-0.021,0.086-0.021l0,0l15.249,0.767h0.002c0.025,0.001,0.049,0.009,0.069,0.021v-0.001l11.352,6.733
	c0.018,0.011,0.032,0.023,0.044,0.039l9.882,11.347l8.388,15.573c0.004,0.007,0.007,0.014,0.01,0.021v0.001l0.001,0.001l0,0v0.001
	v0.002l0.001,0.001v0.001v0.001h0.001v0.001L102.212,49.029L102.212,49.029z M91.891,49.96L91.51,53.3l2.717-1.133L91.891,49.96z
	 M92.389,45.591l-0.455,3.986l2.604,2.461l7.107-2.963L92.389,45.591z M93.722,33.908l-1.297,11.368l9.308,3.504L93.722,33.908z
	 M84.107,41.906l8.695-7.946l-8.72,4.652L84.107,41.906z M82.846,39.272l0.952,2.218l-0.021-2.715L82.846,39.272z M80.312,30.812
	l-0.543,1.284l2.956,6.892l1.05-0.56l-0.052-6.985L80.312,30.812z M83.658,22.913l-3.224,7.609l3.285,0.607L83.658,22.913z
	 M72.782,15.809l5.73,13.361l5.07-6.955L72.782,15.809z M57.422,14.834l3.968,12.014l10.724-11.275L57.422,14.834z M84.583,109.069
	l-1.496,6.618l1.422,1.12l8.993-6.93L84.583,109.069z M82.313,118.886l-0.005,0.002 M59.699,121.582
	c-0.012-0.024-0.016-0.052-0.013-0.078 M88.23,130.228c-0.055,0.022-0.12,0.012-0.165-0.032"/>
<path fill-rule="evenodd" clip-rule="evenodd" fill="#FFFFFF" d="M99.304,70.898c0.219,0,0.396,0.177,0.396,0.396
	c0,0.22-0.178,0.396-0.396,0.396s-0.396-0.177-0.396-0.396C98.907,71.075,99.085,70.898,99.304,70.898"/>
<path fill-rule="evenodd" clip-rule="evenodd" fill="#FFFFFF" d="M84.462,108.507c0.219,0,0.396,0.178,0.396,0.396
	s-0.178,0.396-0.396,0.396s-0.396-0.178-0.396-0.396S84.243,108.507,84.462,108.507"/>
<path fill-rule="evenodd" clip-rule="evenodd" fill="#FFFFFF" d="M103.628,110.757c0.219,0,0.396,0.177,0.396,0.396
	c0,0.219-0.177,0.396-0.396,0.396s-0.396-0.177-0.396-0.396C103.231,110.934,103.409,110.757,103.628,110.757"/>
<path fill-rule="evenodd" clip-rule="evenodd" fill="#FFFFFF" d="M104.971,90.529c0.219,0,0.396,0.178,0.396,0.396
	s-0.177,0.396-0.396,0.396c-0.22,0-0.397-0.178-0.397-0.396S104.751,90.529,104.971,90.529"/>
<path fill-rule="evenodd" clip-rule="evenodd" fill="#FFFFFF" d="M102.271,96.667c0.219,0,0.396,0.178,0.396,0.396
	s-0.178,0.396-0.396,0.396s-0.396-0.178-0.396-0.396S102.053,96.667,102.271,96.667"/>
<path fill-rule="evenodd" clip-rule="evenodd" fill="#FFFFFF" d="M107.196,101.323c0.219,0,0.396,0.177,0.396,0.396
	c0,0.22-0.178,0.396-0.396,0.396s-0.396-0.177-0.396-0.396C106.8,101.5,106.978,101.323,107.196,101.323"/>
<path fill-rule="evenodd" clip-rule="evenodd" fill="#FFFFFF" d="M66.055,63.679c0.219,0,0.396,0.178,0.396,0.396
	s-0.177,0.396-0.396,0.396s-0.396-0.178-0.396-0.396S65.836,63.679,66.055,63.679"/>
<path fill-rule="evenodd" clip-rule="evenodd" fill="#FFFFFF" d="M89.117,72.517c0.219,0,0.396,0.177,0.396,0.396
	c0,0.219-0.178,0.396-0.396,0.396s-0.396-0.177-0.396-0.396C88.721,72.694,88.898,72.517,89.117,72.517"/>
<path fill-rule="evenodd" clip-rule="evenodd" fill="#FFFFFF" d="M79.011,78.17c0.219,0,0.396,0.177,0.396,0.396
	s-0.178,0.396-0.396,0.396s-0.396-0.178-0.396-0.396S78.792,78.17,79.011,78.17"/>
<path fill-rule="evenodd" clip-rule="evenodd" fill="#FFFFFF" d="M57.205,14.273c0.219,0,0.396,0.178,0.396,0.396
	s-0.178,0.396-0.396,0.396s-0.396-0.178-0.396-0.396S56.986,14.273,57.205,14.273"/>
<path fill-rule="evenodd" clip-rule="evenodd" fill="#FFFFFF" d="M72.455,15.04c0.219,0,0.396,0.178,0.396,0.396
	s-0.178,0.396-0.396,0.396s-0.396-0.178-0.396-0.396S72.236,15.04,72.455,15.04"/>
<path fill-rule="evenodd" clip-rule="evenodd" fill="#FFFFFF" d="M61.324,26.744c0.219,0,0.396,0.178,0.396,0.396
	s-0.178,0.396-0.396,0.396s-0.396-0.178-0.396-0.396S61.105,26.744,61.324,26.744"/>
<path fill-rule="evenodd" clip-rule="evenodd" fill="#FFFFFF" d="M42.874,22.663c0.219,0,0.396,0.178,0.396,0.396
	s-0.178,0.396-0.396,0.396s-0.396-0.178-0.396-0.396S42.655,22.663,42.874,22.663"/>
<path fill-rule="evenodd" clip-rule="evenodd" fill="#FFFFFF" d="M64.225,48.635c0.219,0,0.396,0.178,0.396,0.396
	s-0.178,0.396-0.396,0.396s-0.396-0.178-0.396-0.396S64.006,48.635,64.225,48.635"/>
<path fill-rule="evenodd" clip-rule="evenodd" fill="#FFFFFF" d="M41.896,39.933c0.219,0,0.396,0.178,0.396,0.396
	s-0.178,0.396-0.396,0.396s-0.396-0.178-0.396-0.396S41.677,39.933,41.896,39.933"/>
<path fill-rule="evenodd" clip-rule="evenodd" fill="#FFFFFF" d="M32.481,35.644c0.219,0,0.396,0.177,0.396,0.396
	c0,0.22-0.178,0.396-0.396,0.396s-0.396-0.177-0.396-0.396C32.085,35.821,32.263,35.644,32.481,35.644"/>
<path fill-rule="evenodd" clip-rule="evenodd" fill="#FFFFFF" d="M83.807,21.773c0.219,0,0.396,0.178,0.396,0.396
	s-0.177,0.396-0.396,0.396s-0.396-0.178-0.396-0.396S83.588,21.773,83.807,21.773"/>
<path fill-rule="evenodd" clip-rule="evenodd" fill="#FFFFFF" d="M93.647,33.048c0.219,0,0.396,0.178,0.396,0.396
	s-0.178,0.396-0.396,0.396s-0.396-0.178-0.396-0.396S93.429,33.048,93.647,33.048"/>
<path fill-rule="evenodd" clip-rule="evenodd" fill="#FFFFFF" d="M83.957,41.855c0.219,0,0.396,0.178,0.396,0.396
	s-0.178,0.396-0.396,0.396s-0.396-0.178-0.396-0.396S83.738,41.855,83.957,41.855"/>
<path fill-rule="evenodd" clip-rule="evenodd" fill="#FFFFFF" d="M32.923,52.548c0.219,0,0.396,0.178,0.396,0.396
	s-0.178,0.396-0.396,0.396s-0.396-0.177-0.396-0.396S32.704,52.548,32.923,52.548"/>
<path fill-rule="evenodd" clip-rule="evenodd" fill="#FFFFFF" d="M24.576,51.775c0.219,0,0.396,0.177,0.396,0.396
	c0,0.22-0.178,0.396-0.396,0.396S24.18,52.39,24.18,52.17C24.18,51.952,24.357,51.775,24.576,51.775"/>
<path fill-rule="evenodd" clip-rule="evenodd" fill="#FFFFFF" d="M48.573,60.635c0.22,0,0.396,0.178,0.396,0.396
	s-0.177,0.396-0.396,0.396c-0.219,0-0.396-0.178-0.396-0.396S48.354,60.635,48.573,60.635"/>
<path fill-rule="evenodd" clip-rule="evenodd" fill="#FFFFFF" d="M28.336,68.132c0.219,0,0.396,0.177,0.396,0.396
	s-0.177,0.396-0.396,0.396s-0.396-0.178-0.396-0.396S28.117,68.132,28.336,68.132"/>
<path fill-rule="evenodd" clip-rule="evenodd" fill="#FFFFFF" d="M19.229,70.695c0.219,0,0.396,0.178,0.396,0.396
	s-0.178,0.396-0.396,0.396s-0.396-0.178-0.396-0.396S19.01,70.695,19.229,70.695"/>
<path fill-rule="evenodd" clip-rule="evenodd" fill="#FFFFFF" d="M97.954,91.069c0.219,0,0.396,0.178,0.396,0.396
	s-0.178,0.396-0.396,0.396s-0.396-0.177-0.396-0.396S97.735,91.069,97.954,91.069"/>
<path fill-rule="evenodd" clip-rule="evenodd" fill="#FFFFFF" d="M75.76,95.757c0.22,0,0.396,0.177,0.396,0.396
	c0,0.22-0.177,0.396-0.396,0.396c-0.219,0-0.396-0.177-0.396-0.396C75.363,95.934,75.541,95.757,75.76,95.757"/>
<path fill-rule="evenodd" clip-rule="evenodd" fill="#FFFFFF" d="M77.648,111.206c0.22,0,0.396,0.178,0.396,0.396
	s-0.177,0.396-0.396,0.396c-0.219,0-0.396-0.178-0.396-0.396S77.43,111.206,77.648,111.206"/>
<path fill-rule="evenodd" clip-rule="evenodd" fill="#FFFFFF" d="M93.906,109.364c0.219,0,0.396,0.177,0.396,0.396
	c0,0.219-0.178,0.396-0.396,0.396s-0.396-0.177-0.396-0.396C93.51,109.541,93.688,109.364,93.906,109.364"/>
<path fill-rule="evenodd" clip-rule="evenodd" fill="#FFFFFF" d="M95.471,117.027c0.219,0,0.396,0.178,0.396,0.396
	s-0.178,0.396-0.396,0.396s-0.396-0.178-0.396-0.396S95.252,117.027,95.471,117.027"/>
<path fill-rule="evenodd" clip-rule="evenodd" fill="#FFFFFF" d="M98.843,118.734c0.219,0,0.396,0.178,0.396,0.396
	c0,0.22-0.178,0.396-0.396,0.396c-0.22,0-0.396-0.177-0.396-0.396C98.446,118.912,98.623,118.734,98.843,118.734"/>
<path fill-rule="evenodd" clip-rule="evenodd" fill="#FFFFFF" d="M90.938,121.668c0.22,0,0.396,0.177,0.396,0.396
	c0,0.22-0.177,0.397-0.396,0.397c-0.219,0-0.396-0.178-0.396-0.397C90.541,121.845,90.719,121.668,90.938,121.668"/>
<path fill-rule="evenodd" clip-rule="evenodd" fill="#FFFFFF" d="M82.236,118.356c0.219,0,0.396,0.178,0.396,0.396
	s-0.178,0.396-0.396,0.396s-0.396-0.178-0.396-0.396S82.018,118.356,82.236,118.356"/>
<path fill-rule="evenodd" clip-rule="evenodd" fill="#FFFFFF" d="M84.867,125.169c0.219,0,0.396,0.178,0.396,0.396
	s-0.178,0.396-0.396,0.396s-0.396-0.178-0.396-0.396S84.648,125.169,84.867,125.169"/>
<path fill-rule="evenodd" clip-rule="evenodd" fill="#FFFFFF" d="M78.188,126.654c0.219,0,0.396,0.178,0.396,0.396
	s-0.178,0.396-0.396,0.396s-0.396-0.178-0.396-0.396S77.97,126.654,78.188,126.654"/>
<path fill-rule="evenodd" clip-rule="evenodd" fill="#FFFFFF" d="M75.018,122.539c0.219,0,0.396,0.178,0.396,0.396
	s-0.178,0.396-0.396,0.396s-0.396-0.178-0.396-0.396S74.799,122.539,75.018,122.539"/>
<path fill-rule="evenodd" clip-rule="evenodd" fill="#FFFFFF" d="M73.466,118.154c0.22,0,0.396,0.178,0.396,0.396
	s-0.177,0.396-0.396,0.396c-0.219,0-0.396-0.178-0.396-0.396S73.247,118.154,73.466,118.154"/>
<path fill-rule="evenodd" clip-rule="evenodd" fill="#FFFFFF" d="M68.137,114.039c0.219,0,0.396,0.178,0.396,0.396
	s-0.178,0.396-0.396,0.396s-0.396-0.178-0.396-0.396S67.918,114.039,68.137,114.039"/>
<path fill-rule="evenodd" clip-rule="evenodd" fill="#FFFFFF" d="M59.839,121.123c0.22,0,0.396,0.177,0.396,0.396
	c0,0.219-0.177,0.396-0.396,0.396c-0.219,0-0.396-0.177-0.396-0.396C59.443,121.299,59.62,121.123,59.839,121.123"/>
<path fill-rule="evenodd" clip-rule="evenodd" fill="#FFFFFF" d="M55.657,113.567c0.219,0,0.396,0.177,0.396,0.396
	c0,0.219-0.177,0.396-0.396,0.396s-0.396-0.177-0.396-0.396C55.261,113.744,55.438,113.567,55.657,113.567"/>
<path fill-rule="evenodd" clip-rule="evenodd" fill="#FFFFFF" d="M48.911,121.662c0.219,0,0.396,0.178,0.396,0.396
	s-0.178,0.396-0.396,0.396s-0.396-0.178-0.396-0.396S48.692,121.662,48.911,121.662"/>
<path fill-rule="evenodd" clip-rule="evenodd" fill="#FFFFFF" d="M45.605,117.007c0.219,0,0.396,0.178,0.396,0.396
	s-0.178,0.396-0.396,0.396s-0.396-0.178-0.396-0.396S45.387,117.007,45.605,117.007"/>
<path fill-rule="evenodd" clip-rule="evenodd" fill="#FFFFFF" d="M45.942,125.102c0.219,0,0.396,0.178,0.396,0.396
	s-0.178,0.396-0.396,0.396s-0.396-0.178-0.396-0.396S45.724,125.102,45.942,125.102"/>
<path fill-rule="evenodd" clip-rule="evenodd" fill="#FFFFFF" d="M51.271,130.162c0.219,0,0.396,0.178,0.396,0.396
	s-0.178,0.396-0.396,0.396s-0.396-0.178-0.396-0.396S51.053,130.162,51.271,130.162"/>
<path fill-rule="evenodd" clip-rule="evenodd" fill="#FFFFFF" d="M45.808,133.265c0.219,0,0.396,0.178,0.396,0.396
	s-0.178,0.396-0.396,0.396s-0.396-0.177-0.396-0.396S45.589,133.265,45.808,133.265"/>
<path fill-rule="evenodd" clip-rule="evenodd" fill="#FFFFFF" d="M56.129,133.265c0.219,0,0.396,0.178,0.396,0.396
	s-0.178,0.396-0.396,0.396s-0.396-0.177-0.396-0.396S55.91,133.265,56.129,133.265"/>
<path fill-rule="evenodd" clip-rule="evenodd" fill="#FFFFFF" d="M62.336,130.769c0.219,0,0.396,0.178,0.396,0.396
	s-0.177,0.396-0.396,0.396c-0.22,0-0.396-0.178-0.396-0.396S62.116,130.769,62.336,130.769"/>
<path fill-rule="evenodd" clip-rule="evenodd" fill="#FFFFFF" d="M63.55,126.046c0.219,0,0.396,0.178,0.396,0.396
	s-0.178,0.396-0.396,0.396s-0.396-0.178-0.396-0.396S63.331,126.046,63.55,126.046"/>
<path fill-rule="evenodd" clip-rule="evenodd" fill="#FFFFFF" d="M70.396,128.676c0.219,0,0.396,0.178,0.396,0.396
	s-0.178,0.396-0.396,0.396S70,129.292,70,129.073S70.178,128.676,70.396,128.676"/>
<path fill-rule="evenodd" clip-rule="evenodd" fill="#FFFFFF" d="M34.069,124.698c0.22,0,0.396,0.177,0.396,0.396
	c0,0.219-0.177,0.396-0.396,0.396c-0.219,0-0.396-0.178-0.396-0.396C33.673,124.875,33.851,124.698,34.069,124.698"/>
<path fill-rule="evenodd" clip-rule="evenodd" fill="#FFFFFF" d="M36.131,116.405c0.219,0,0.396,0.177,0.396,0.396
	c0,0.219-0.178,0.396-0.396,0.396s-0.396-0.178-0.396-0.396C35.734,116.582,35.912,116.405,36.131,116.405"/>
<path fill-rule="evenodd" clip-rule="evenodd" fill="#FFFFFF" d="M37.713,121.527c0.219,0,0.396,0.178,0.396,0.396
	s-0.177,0.396-0.396,0.396c-0.22,0-0.396-0.178-0.396-0.396S37.493,121.527,37.713,121.527"/>
<path fill-rule="evenodd" clip-rule="evenodd" fill="#FFFFFF" d="M31.371,117.007c0.219,0,0.396,0.178,0.396,0.396
	s-0.178,0.396-0.396,0.396s-0.396-0.178-0.396-0.396S31.152,117.007,31.371,117.007"/>
<path fill-rule="evenodd" clip-rule="evenodd" fill="#FFFFFF" d="M30.899,108.373c0.219,0,0.396,0.177,0.396,0.396
	c0,0.22-0.177,0.397-0.396,0.397s-0.396-0.178-0.396-0.397C30.503,108.549,30.681,108.373,30.899,108.373"/>
<path fill-rule="evenodd" clip-rule="evenodd" fill="#FFFFFF" d="M22.534,108.035c0.219,0,0.396,0.178,0.396,0.396
	s-0.178,0.396-0.396,0.396s-0.396-0.178-0.396-0.396S22.315,108.035,22.534,108.035"/>
<path fill-rule="evenodd" clip-rule="evenodd" fill="#FFFFFF" d="M18.257,87.417c0.219,0,0.396,0.177,0.396,0.396
	c0,0.219-0.177,0.396-0.396,0.396s-0.396-0.177-0.396-0.396C17.86,87.593,18.038,87.417,18.257,87.417"/>
<path fill-rule="evenodd" clip-rule="evenodd" fill="#FFFFFF" d="M25.502,88.202c0.219,0,0.396,0.178,0.396,0.396
	s-0.178,0.396-0.396,0.396s-0.396-0.178-0.396-0.396S25.283,88.202,25.502,88.202"/>
<path fill-rule="evenodd" clip-rule="evenodd" fill="#FFFFFF" d="M49.046,90.698c0.219,0,0.396,0.178,0.396,0.396
	s-0.178,0.396-0.396,0.396s-0.396-0.178-0.396-0.396S48.827,90.698,49.046,90.698"/>
<path fill-rule="evenodd" clip-rule="evenodd" fill="#FFFFFF" d="M64.359,86.583c0.219,0,0.396,0.178,0.396,0.396
	s-0.178,0.396-0.396,0.396s-0.396-0.178-0.396-0.396S64.141,86.583,64.359,86.583"/>
<path fill-rule="evenodd" clip-rule="evenodd" fill="#FFFFFF" d="M60.581,101.492c0.22,0,0.396,0.177,0.396,0.396
	c0,0.219-0.177,0.396-0.396,0.396c-0.219,0-0.396-0.177-0.396-0.396C60.186,101.668,60.362,101.492,60.581,101.492"/>
<path fill-rule="evenodd" clip-rule="evenodd" fill="#FFFFFF" d="M79.207,86.785c0.219,0,0.396,0.178,0.396,0.396
	s-0.177,0.396-0.396,0.396s-0.396-0.178-0.396-0.396S78.988,86.785,79.207,86.785"/>
<path fill-rule="evenodd" clip-rule="evenodd" fill="#FFFFFF" d="M88.077,102.078c0.219,0,0.396,0.178,0.396,0.396
	s-0.178,0.396-0.396,0.396s-0.396-0.178-0.396-0.396S87.858,102.078,88.077,102.078"/>
<path fill-rule="evenodd" clip-rule="evenodd" fill="#FFFFFF" d="M102.063,48.672c0.219,0,0.396,0.178,0.396,0.396
	s-0.177,0.396-0.396,0.396c-0.22,0-0.396-0.178-0.396-0.396S101.844,48.672,102.063,48.672"/>
<path fill-rule="evenodd" clip-rule="evenodd" fill="#FFFFFF" d="M106.772,62.667c0.22,0,0.396,0.178,0.396,0.396
	s-0.177,0.396-0.396,0.396c-0.219,0-0.396-0.178-0.396-0.396S106.554,62.667,106.772,62.667"/>
<path fill-rule="evenodd" clip-rule="evenodd" fill="#FFFFFF" d="M108.583,71.875c0.219,0,0.396,0.177,0.396,0.396
	c0,0.22-0.178,0.396-0.396,0.396c-0.22,0-0.396-0.177-0.396-0.396C108.187,72.051,108.363,71.875,108.583,71.875"/>
<path fill-rule="evenodd" clip-rule="evenodd" fill="#FFFFFF" d="M109.692,80.882c0.219,0,0.396,0.177,0.396,0.396
	c0,0.219-0.178,0.396-0.396,0.396s-0.396-0.177-0.396-0.396C109.296,81.059,109.474,80.882,109.692,80.882"/>
<path fill-rule="evenodd" clip-rule="evenodd" fill="#FFFFFF" d="M38.792,111.948c0.219,0,0.396,0.178,0.396,0.396
	s-0.178,0.396-0.396,0.396s-0.396-0.178-0.396-0.396S38.573,111.948,38.792,111.948"/>
<path fill-rule="evenodd" clip-rule="evenodd" fill="#FFFFFF" d="M45.605,108.035c0.219,0,0.396,0.178,0.396,0.396
	s-0.178,0.396-0.396,0.396s-0.396-0.178-0.396-0.396S45.387,108.035,45.605,108.035"/>
<path fill-rule="evenodd" clip-rule="evenodd" fill="#FFFFFF" d="M60.244,136.84c0.219,0,0.396,0.178,0.396,0.396
	s-0.178,0.396-0.396,0.396s-0.396-0.178-0.396-0.396S60.025,136.84,60.244,136.84"/>
<path fill-rule="evenodd" clip-rule="evenodd" fill="#FFFFFF" d="M74.073,135.963c0.219,0,0.396,0.178,0.396,0.396
	s-0.178,0.396-0.396,0.396s-0.396-0.178-0.396-0.396S73.854,135.963,74.073,135.963"/>
<path fill-rule="evenodd" clip-rule="evenodd" fill="#FFFFFF" d="M88.173,129.69c0.219,0,0.396,0.177,0.396,0.396
	c0,0.22-0.178,0.396-0.396,0.396c-0.22,0-0.396-0.177-0.396-0.396C87.776,129.867,87.953,129.69,88.173,129.69"/>
<path fill-rule="evenodd" clip-rule="evenodd" fill="#FFFFFF" d="M88.348,95.979c0.219,0,0.396,0.178,0.396,0.396
	s-0.177,0.396-0.396,0.396s-0.396-0.178-0.396-0.396S88.129,95.979,88.348,95.979"/>
<path fill-rule="evenodd" clip-rule="evenodd" fill="#FFFFFF" d="M81.332,59.828c0,9.524-7.721,17.246-17.245,17.246
	c-5.93,0-10.736,4.807-10.736,10.735c0,5.93,4.807,10.736,10.736,10.736c5.929,0,10.735-4.807,10.735-10.736h6.51
	c0,5.93,4.807,10.736,10.736,10.736v6.51c-5.76,0-10.858-2.824-13.991-7.162c-3.132,4.338-8.23,7.162-13.99,7.162
	c-4.06,0-7.79-1.403-10.736-3.749v3.749h-6.456l-0.054-45.228c0-9.524,7.722-17.245,17.246-17.245S81.332,50.303,81.332,59.828
	 M53.351,59.828v14.485c2.946-2.347,6.677-3.749,10.736-3.749c5.929,0,10.735-4.807,10.735-10.736
	c0-5.929-4.807-10.735-10.735-10.735C58.157,49.092,53.351,53.899,53.351,59.828z"/>
<g>
	<path fill="#FFFFFF" d="M124.189,53.101h2.263c0,0.254-0.003,0.46-0.007,0.618c-0.005,0.157-0.022,0.254-0.053,0.289
		c-0.031,0.035-0.081,0.053-0.151,0.053h-3.104v-8.998c0-0.035,0.013-0.079,0.039-0.132s0.084-0.079,0.171-0.079h3.157
		c0,0.246-0.002,0.448-0.006,0.605c-0.005,0.158-0.021,0.257-0.046,0.296c-0.026,0.04-0.075,0.06-0.146,0.06h-2.117v2.749h1.986
		c0,0.237-0.003,0.435-0.007,0.592c-0.005,0.158-0.02,0.262-0.046,0.31s-0.075,0.072-0.145,0.072h-1.789V53.101z"/>
</g>
<g>
	<path fill="#FFFFFF" d="M127.991,53.956c-0.303-0.157-0.453-0.337-0.453-0.539c0-0.114,0.023-0.241,0.072-0.382
		c0.048-0.14,0.116-0.268,0.203-0.381c0.343,0.307,0.794,0.46,1.355,0.46c0.868,0,1.302-0.447,1.302-1.342
		c0-0.315-0.057-0.599-0.171-0.849c-0.113-0.25-0.315-0.546-0.604-0.888l-1.315-1.539c-0.299-0.359-0.512-0.687-0.639-0.98
		c-0.127-0.293-0.19-0.599-0.19-0.914c0-0.57,0.199-1.026,0.599-1.368c0.398-0.342,0.954-0.513,1.664-0.513
		c0.588,0,1.021,0.059,1.303,0.178c0.28,0.118,0.421,0.278,0.421,0.479c0,0.22-0.088,0.421-0.264,0.605
		c-0.097-0.079-0.266-0.151-0.506-0.217c-0.242-0.066-0.503-0.099-0.783-0.099c-0.395,0-0.708,0.079-0.94,0.236
		c-0.232,0.158-0.349,0.382-0.349,0.671c0,0.229,0.048,0.437,0.145,0.625s0.25,0.414,0.461,0.678l1.434,1.618
		c0.333,0.395,0.563,0.759,0.69,1.092s0.19,0.71,0.19,1.131c0,0.746-0.182,1.345-0.546,1.796c-0.363,0.452-0.962,0.678-1.795,0.678
		C128.722,54.193,128.294,54.114,127.991,53.956z"/>
</g>
<g>
	<path fill="#FFFFFF" d="M133.773,53.883c-0.312-0.206-0.558-0.627-0.736-1.263c-0.181-0.636-0.271-1.563-0.271-2.782
		c0-1.395,0.127-2.469,0.382-3.223c0.254-0.755,0.567-1.259,0.94-1.514c0.373-0.254,0.796-0.381,1.27-0.381
		c0.438,0,0.754,0.07,0.947,0.21c0.192,0.141,0.289,0.312,0.289,0.514c0,0.236-0.057,0.451-0.171,0.645
		c-0.271-0.22-0.557-0.329-0.854-0.329c-0.325,0-0.61,0.104-0.855,0.31s-0.445,0.603-0.599,1.19c-0.153,0.587-0.23,1.43-0.23,2.525
		c0,0.859,0.053,1.526,0.158,2s0.254,0.798,0.447,0.973c0.192,0.176,0.43,0.264,0.71,0.264c0.246,0,0.479-0.042,0.697-0.125
		c0.22-0.083,0.396-0.182,0.526-0.296c0.105,0.228,0.158,0.442,0.158,0.645c0,0.263-0.153,0.486-0.461,0.671
		c-0.307,0.184-0.697,0.276-1.17,0.276C134.478,54.193,134.085,54.089,133.773,53.883z"/>
</g>
<g>
	<path fill="#FFFFFF" d="M138.739,53.825c-0.347-0.246-0.574-0.568-0.684-0.968c-0.11-0.398-0.165-0.896-0.165-1.492v-6.289
		c0-0.078,0.016-0.131,0.047-0.157c0.03-0.026,0.136-0.044,0.315-0.053s0.423-0.014,0.73-0.014v6.552
		c0,0.605,0.083,1.057,0.249,1.354c0.167,0.299,0.509,0.447,1.026,0.447c0.22,0,0.438-0.021,0.658-0.065
		c0.219-0.044,0.386-0.097,0.5-0.158v-7.906c0-0.078,0.018-0.131,0.052-0.157c0.035-0.026,0.141-0.044,0.316-0.053
		c0.175-0.009,0.412-0.014,0.71-0.014v8.867c-0.184,0.123-0.484,0.232-0.901,0.329c-0.416,0.096-0.861,0.145-1.335,0.145
		C139.593,54.193,139.086,54.07,138.739,53.825z"/>
</g>
<g>
	<path fill="#FFFFFF" d="M145.027,53.101h2.263c0,0.254-0.002,0.46-0.007,0.618c-0.004,0.157-0.021,0.254-0.053,0.289
		c-0.03,0.035-0.081,0.053-0.15,0.053h-3.105v-8.998c0-0.035,0.014-0.079,0.04-0.132s0.083-0.079,0.171-0.079h3.157
		c0,0.246-0.002,0.448-0.007,0.605c-0.004,0.158-0.02,0.257-0.046,0.296c-0.026,0.04-0.074,0.06-0.145,0.06h-2.118v2.749h1.986
		c0,0.237-0.002,0.435-0.007,0.592c-0.004,0.158-0.02,0.262-0.046,0.31s-0.074,0.072-0.145,0.072h-1.789V53.101z"/>
</g>
<g>
	<path fill="#FFFFFF" d="M148.625,45.155c0-0.113,0.018-0.188,0.053-0.224c0.035-0.034,0.114-0.057,0.237-0.065
		c0.122-0.009,0.381-0.014,0.776-0.014v8.209h2.263v0.789c0,0.079-0.019,0.134-0.053,0.165c-0.035,0.03-0.088,0.046-0.158,0.046
		h-3.118V45.155z"/>
</g>
<g>
	<path fill="#FFFFFF" d="M158.235,54.035c-0.062,0.035-0.192,0.053-0.395,0.053c-0.236,0-0.447-0.009-0.631-0.026l-0.553-2.342
		h-2.289l-0.513,2.157c-0.026,0.079-0.068,0.134-0.125,0.165c-0.058,0.03-0.183,0.046-0.375,0.046c-0.185,0-0.404-0.014-0.658-0.039
		l2.354-9.051c0.026-0.123,0.158-0.185,0.395-0.185c0.202,0,0.369,0.014,0.5,0.039l2.355,9.012
		C158.319,53.943,158.297,54,158.235,54.035z M156.42,50.759l-0.447-1.895c-0.254-1.069-0.407-1.916-0.46-2.539
		c-0.097,0.781-0.255,1.627-0.474,2.539l-0.447,1.895H156.42z"/>
</g>
<g>
	<path fill="#FFFFFF" d="M161.492,45.102c0-0.087,0.026-0.15,0.079-0.19c0.053-0.039,0.145-0.06,0.276-0.06h1.289
		c0.596,0,1.078,0.125,1.447,0.375c0.368,0.25,0.646,0.676,0.835,1.276s0.283,1.428,0.283,2.479c0,1.263-0.099,2.266-0.296,3.006
		c-0.198,0.741-0.485,1.272-0.862,1.592c-0.377,0.32-0.847,0.48-1.407,0.48h-1.645V45.102z M163.163,53.048
		c0.263,0,0.491-0.104,0.684-0.31c0.193-0.206,0.351-0.613,0.474-1.224c0.123-0.609,0.185-1.488,0.185-2.637
		c0-0.799-0.049-1.419-0.145-1.862c-0.097-0.442-0.242-0.752-0.435-0.927c-0.193-0.176-0.447-0.264-0.763-0.264h-0.605v7.223
		H163.163z"/>
</g>
<g>
	<path fill="#FFFFFF" d="M168.116,53.101h2.263c0,0.254-0.003,0.46-0.007,0.618c-0.005,0.157-0.022,0.254-0.053,0.289
		c-0.031,0.035-0.081,0.053-0.151,0.053h-3.104v-8.998c0-0.035,0.013-0.079,0.039-0.132s0.084-0.079,0.171-0.079h3.157
		c0,0.246-0.002,0.448-0.006,0.605c-0.005,0.158-0.021,0.257-0.046,0.296c-0.026,0.04-0.075,0.06-0.146,0.06h-2.117v2.749h1.986
		c0,0.237-0.003,0.435-0.007,0.592c-0.005,0.158-0.02,0.262-0.046,0.31s-0.075,0.072-0.145,0.072h-1.789V53.101z"/>
</g>
<g>
	<path fill="#FFFFFF" d="M178.818,54.035c-0.061,0.035-0.193,0.053-0.395,0.053c-0.236,0-0.447-0.009-0.631-0.026l-0.553-2.342
		h-2.289l-0.514,2.157c-0.025,0.079-0.068,0.134-0.125,0.165c-0.057,0.03-0.182,0.046-0.375,0.046c-0.184,0-0.403-0.014-0.657-0.039
		l2.354-9.051c0.027-0.123,0.158-0.185,0.395-0.185c0.201,0,0.369,0.014,0.5,0.039l2.355,9.012
		C178.902,53.943,178.879,54,178.818,54.035z M177.004,50.759l-0.447-1.895c-0.256-1.069-0.408-1.916-0.461-2.539
		c-0.098,0.781-0.254,1.627-0.475,2.539l-0.447,1.895H177.004z"/>
</g>
<g>
	<path fill="#FFFFFF" d="M183.567,51.536c0.241,0.631,0.393,1.395,0.454,2.289c0,0.104-0.031,0.175-0.093,0.21
		c-0.061,0.035-0.21,0.053-0.447,0.053c-0.096,0-0.302-0.009-0.618-0.026c-0.062-0.965-0.199-1.752-0.414-2.361
		s-0.437-1.072-0.664-1.388c-0.062,0.009-0.149,0.013-0.264,0.013h-0.474v3.525c0,0.079-0.015,0.132-0.046,0.158
		c-0.03,0.026-0.134,0.042-0.309,0.046c-0.176,0.005-0.408,0.007-0.697,0.007v-8.998c0-0.035,0.013-0.079,0.039-0.132
		s0.083-0.079,0.171-0.079h1.303c0.833,0,1.444,0.207,1.835,0.619s0.585,1.069,0.585,1.973c0,1.289-0.381,2.153-1.144,2.592
		C183.065,50.404,183.326,50.904,183.567,51.536z M181.627,49.338c0.386,0,0.671-0.151,0.855-0.454
		c0.184-0.303,0.276-0.796,0.276-1.479c0-0.535-0.082-0.938-0.244-1.21c-0.162-0.272-0.432-0.408-0.809-0.408h-0.658v3.552H181.627z
		"/>
</g>
<g>
	<path fill="#FFFFFF" d="M189.396,44.852v0.776c0,0.088-0.018,0.147-0.053,0.178c-0.035,0.031-0.092,0.046-0.171,0.046h-1.618v7.998
		c0,0.079-0.018,0.132-0.053,0.158s-0.141,0.042-0.315,0.046c-0.176,0.005-0.408,0.007-0.697,0.007v-8.209h-1.789v-0.789
		c0-0.141,0.074-0.211,0.224-0.211H189.396z"/>
</g>
<g>
	<path fill="#FFFFFF" d="M191.6,53.101h2.263c0,0.254-0.003,0.46-0.007,0.618c-0.005,0.157-0.021,0.254-0.053,0.289
		c-0.03,0.035-0.081,0.053-0.151,0.053h-3.104v-8.998c0-0.035,0.014-0.079,0.04-0.132s0.083-0.079,0.171-0.079h3.157
		c0,0.246-0.003,0.448-0.007,0.605c-0.005,0.158-0.02,0.257-0.046,0.296c-0.026,0.04-0.075,0.06-0.145,0.06H191.6v2.749h1.986
		c0,0.237-0.002,0.435-0.007,0.592c-0.004,0.158-0.02,0.262-0.046,0.31s-0.074,0.072-0.145,0.072H191.6V53.101z"/>
</g>
<g>
	<path fill="#FFFFFF" d="M199.657,53.85c0,0.079-0.016,0.132-0.046,0.158c-0.031,0.026-0.134,0.042-0.31,0.046
		c-0.176,0.005-0.412,0.007-0.71,0.007v-3.749l-1.815-5.288c-0.018-0.062-0.009-0.104,0.026-0.125
		c0.035-0.022,0.153-0.035,0.354-0.04c0.202-0.004,0.474-0.007,0.816-0.007l0.525,1.803c0.132,0.412,0.271,0.926,0.415,1.539
		c0.145,0.614,0.226,1.021,0.243,1.224c0.018-0.193,0.101-0.599,0.25-1.217s0.289-1.134,0.421-1.546l0.461-1.604
		c0.017-0.07,0.046-0.119,0.085-0.146s0.149-0.041,0.329-0.046c0.18-0.004,0.423-0.007,0.729-0.007l-1.775,5.394V53.85z"/>
</g>
<g>
	<path fill="#FFFFFF" d="M204.802,53.956c-0.303-0.157-0.454-0.337-0.454-0.539c0-0.114,0.023-0.241,0.072-0.382
		c0.048-0.14,0.116-0.268,0.204-0.381c0.342,0.307,0.793,0.46,1.354,0.46c0.868,0,1.303-0.447,1.303-1.342
		c0-0.315-0.058-0.599-0.171-0.849c-0.114-0.25-0.316-0.546-0.605-0.888l-1.315-1.539c-0.299-0.359-0.511-0.687-0.638-0.98
		c-0.128-0.293-0.191-0.599-0.191-0.914c0-0.57,0.199-1.026,0.599-1.368s0.954-0.513,1.664-0.513c0.588,0,1.021,0.059,1.303,0.178
		c0.28,0.118,0.421,0.278,0.421,0.479c0,0.22-0.088,0.421-0.264,0.605c-0.096-0.079-0.265-0.151-0.506-0.217
		c-0.241-0.066-0.502-0.099-0.783-0.099c-0.395,0-0.708,0.079-0.94,0.236c-0.232,0.158-0.349,0.382-0.349,0.671
		c0,0.229,0.048,0.437,0.145,0.625s0.25,0.414,0.461,0.678l1.434,1.618c0.333,0.395,0.563,0.759,0.69,1.092s0.191,0.71,0.191,1.131
		c0,0.746-0.183,1.345-0.546,1.796c-0.364,0.452-0.963,0.678-1.796,0.678C205.531,54.193,205.104,54.114,204.802,53.956z"/>
</g>
<g>
	<path fill="#FFFFFF" d="M210.61,53.825c-0.347-0.246-0.575-0.568-0.685-0.968c-0.109-0.398-0.164-0.896-0.164-1.492v-6.289
		c0-0.078,0.015-0.131,0.046-0.157c0.03-0.026,0.136-0.044,0.315-0.053s0.423-0.014,0.73-0.014v6.552
		c0,0.605,0.083,1.057,0.25,1.354c0.166,0.299,0.508,0.447,1.025,0.447c0.22,0,0.438-0.021,0.658-0.065
		c0.219-0.044,0.386-0.097,0.5-0.158v-7.906c0-0.078,0.018-0.131,0.053-0.157s0.14-0.044,0.315-0.053s0.412-0.014,0.71-0.014v8.867
		c-0.184,0.123-0.484,0.232-0.9,0.329c-0.417,0.096-0.862,0.145-1.336,0.145C211.463,54.193,210.956,54.07,210.61,53.825z"/>
</g>
<g>
	<path fill="#FFFFFF" d="M219.312,45.471c0.391,0.412,0.585,1.069,0.585,1.973c0,1.018-0.221,1.752-0.664,2.204
		c-0.442,0.451-1.023,0.677-1.743,0.677h-0.474v3.525c0,0.079-0.015,0.132-0.046,0.158c-0.03,0.026-0.134,0.042-0.309,0.046
		c-0.176,0.005-0.408,0.007-0.697,0.007v-8.998c0-0.079,0.015-0.134,0.046-0.164c0.03-0.031,0.085-0.047,0.164-0.047h1.303
		C218.31,44.852,218.921,45.059,219.312,45.471z M218.45,48.872c0.184-0.312,0.276-0.827,0.276-1.546c0-0.5-0.082-0.882-0.244-1.145
		s-0.432-0.395-0.809-0.395h-0.658v3.552h0.579C217.98,49.338,218.266,49.183,218.45,48.872z"/>
</g>
<g>
	<path fill="#FFFFFF" d="M222.232,53.101h2.263c0,0.254-0.003,0.46-0.007,0.618c-0.005,0.157-0.021,0.254-0.053,0.289
		c-0.03,0.035-0.081,0.053-0.151,0.053h-3.104v-8.998c0-0.035,0.014-0.079,0.04-0.132s0.083-0.079,0.171-0.079h3.157
		c0,0.246-0.003,0.448-0.007,0.605c-0.005,0.158-0.02,0.257-0.046,0.296c-0.026,0.04-0.075,0.06-0.145,0.06h-2.118v2.749h1.986
		c0,0.237-0.002,0.435-0.007,0.592c-0.004,0.158-0.02,0.262-0.046,0.31s-0.074,0.072-0.145,0.072h-1.789V53.101z"/>
</g>
<g>
	<path fill="#FFFFFF" d="M229.402,51.536c0.241,0.631,0.393,1.395,0.454,2.289c0,0.104-0.031,0.175-0.093,0.21
		c-0.061,0.035-0.21,0.053-0.447,0.053c-0.096,0-0.302-0.009-0.618-0.026c-0.062-0.965-0.199-1.752-0.414-2.361
		s-0.437-1.072-0.664-1.388c-0.062,0.009-0.149,0.013-0.264,0.013h-0.474v3.525c0,0.079-0.015,0.132-0.046,0.158
		c-0.03,0.026-0.134,0.042-0.309,0.046c-0.176,0.005-0.408,0.007-0.697,0.007v-8.998c0-0.035,0.013-0.079,0.039-0.132
		s0.083-0.079,0.171-0.079h1.303c0.833,0,1.444,0.207,1.835,0.619s0.585,1.069,0.585,1.973c0,1.289-0.381,2.153-1.144,2.592
		C228.9,50.404,229.161,50.904,229.402,51.536z M227.462,49.338c0.386,0,0.671-0.151,0.855-0.454
		c0.184-0.303,0.276-0.796,0.276-1.479c0-0.535-0.082-0.938-0.244-1.21c-0.162-0.272-0.432-0.408-0.809-0.408h-0.658v3.552H227.462z
		"/>
</g>
<g>
	<path fill="#FFFFFF" d="M231.179,45.339c0-0.176,0.018-0.294,0.053-0.355c0.034-0.062,0.116-0.099,0.243-0.111
		c0.127-0.014,0.388-0.021,0.782-0.021v8.998c0,0.079-0.018,0.132-0.053,0.158s-0.14,0.042-0.315,0.046
		c-0.176,0.005-0.412,0.007-0.71,0.007V45.339z"/>
</g>
<g>
	<path fill="#FFFFFF" d="M234.651,53.778c-0.338-0.276-0.586-0.758-0.743-1.446c-0.158-0.688-0.237-1.664-0.237-2.928
		c0-1.157,0.09-2.078,0.27-2.762c0.18-0.685,0.454-1.176,0.822-1.474s0.847-0.447,1.434-0.447c0.579,0,1.035,0.143,1.368,0.428
		c0.334,0.285,0.577,0.761,0.73,1.427c0.153,0.667,0.23,1.597,0.23,2.789c0,1.201-0.086,2.153-0.257,2.854
		c-0.171,0.702-0.437,1.206-0.796,1.513c-0.359,0.308-0.833,0.461-1.421,0.461C235.456,54.193,234.988,54.054,234.651,53.778z
		 M236.854,52.732c0.185-0.245,0.317-0.636,0.401-1.17c0.083-0.535,0.125-1.259,0.125-2.171s-0.035-1.622-0.105-2.131
		s-0.193-0.877-0.368-1.105c-0.176-0.228-0.421-0.342-0.736-0.342c-0.316,0-0.568,0.125-0.757,0.375s-0.327,0.653-0.414,1.21
		c-0.088,0.557-0.132,1.313-0.132,2.27c0,0.842,0.037,1.511,0.111,2.006c0.075,0.496,0.2,0.857,0.375,1.085
		c0.176,0.229,0.421,0.343,0.737,0.343C236.416,53.101,236.67,52.978,236.854,52.732z"/>
</g>
<g>
	<path fill="#FFFFFF" d="M243.524,51.536c0.241,0.631,0.393,1.395,0.454,2.289c0,0.104-0.031,0.175-0.093,0.21
		c-0.061,0.035-0.21,0.053-0.447,0.053c-0.096,0-0.302-0.009-0.618-0.026c-0.062-0.965-0.199-1.752-0.414-2.361
		s-0.437-1.072-0.664-1.388c-0.062,0.009-0.149,0.013-0.264,0.013h-0.474v3.525c0,0.079-0.015,0.132-0.046,0.158
		c-0.03,0.026-0.134,0.042-0.309,0.046c-0.176,0.005-0.408,0.007-0.697,0.007v-8.998c0-0.035,0.013-0.079,0.039-0.132
		s0.083-0.079,0.171-0.079h1.303c0.833,0,1.444,0.207,1.835,0.619s0.585,1.069,0.585,1.973c0,1.289-0.381,2.153-1.144,2.592
		C243.022,50.404,243.283,50.904,243.524,51.536z M241.584,49.338c0.386,0,0.671-0.151,0.855-0.454
		c0.184-0.303,0.276-0.796,0.276-1.479c0-0.535-0.082-0.938-0.244-1.21c-0.162-0.272-0.432-0.408-0.809-0.408h-0.658v3.552H241.584z
		"/>
</g>
<g>
	<path fill="#FFFFFF" d="M247.379,45.102c0-0.087,0.026-0.15,0.079-0.19c0.052-0.039,0.145-0.06,0.275-0.06h1.29
		c0.596,0,1.078,0.125,1.446,0.375c0.369,0.25,0.647,0.676,0.836,1.276s0.282,1.428,0.282,2.479c0,1.263-0.099,2.266-0.296,3.006
		c-0.197,0.741-0.484,1.272-0.861,1.592c-0.377,0.32-0.847,0.48-1.407,0.48h-1.645V45.102z M249.049,53.048
		c0.264,0,0.491-0.104,0.685-0.31c0.192-0.206,0.351-0.613,0.474-1.224c0.123-0.609,0.185-1.488,0.185-2.637
		c0-0.799-0.049-1.419-0.146-1.862c-0.097-0.442-0.241-0.752-0.434-0.927c-0.193-0.176-0.447-0.264-0.764-0.264h-0.604v7.223
		H249.049z"/>
</g>
<g>
	<path fill="#FFFFFF" d="M254.003,53.101h2.263c0,0.254-0.003,0.46-0.007,0.618c-0.005,0.157-0.021,0.254-0.053,0.289
		c-0.03,0.035-0.081,0.053-0.151,0.053h-3.104v-8.998c0-0.035,0.014-0.079,0.04-0.132s0.083-0.079,0.171-0.079h3.157
		c0,0.246-0.003,0.448-0.007,0.605c-0.005,0.158-0.02,0.257-0.046,0.296c-0.026,0.04-0.075,0.06-0.145,0.06h-2.118v2.749h1.986
		c0,0.237-0.002,0.435-0.007,0.592c-0.004,0.158-0.02,0.262-0.046,0.31s-0.074,0.072-0.145,0.072h-1.789V53.101z"/>
</g>
<g>
	<path fill="#FFFFFF" d="M259.681,45.102c0-0.087,0.026-0.15,0.079-0.19c0.052-0.039,0.145-0.06,0.275-0.06h1.29
		c0.596,0,1.078,0.125,1.446,0.375c0.369,0.25,0.647,0.676,0.836,1.276s0.282,1.428,0.282,2.479c0,1.263-0.099,2.266-0.296,3.006
		c-0.197,0.741-0.484,1.272-0.861,1.592c-0.377,0.32-0.847,0.48-1.407,0.48h-1.645V45.102z M261.351,53.048
		c0.264,0,0.491-0.104,0.685-0.31c0.192-0.206,0.351-0.613,0.474-1.224c0.123-0.609,0.185-1.488,0.185-2.637
		c0-0.799-0.049-1.419-0.146-1.862c-0.097-0.442-0.241-0.752-0.434-0.927c-0.193-0.176-0.447-0.264-0.764-0.264h-0.604v7.223
		H261.351z"/>
</g>
<g>
	<path fill="#FFFFFF" d="M265.238,45.339c0-0.176,0.018-0.294,0.053-0.355c0.034-0.062,0.116-0.099,0.243-0.111
		c0.127-0.014,0.388-0.021,0.782-0.021v8.998c0,0.079-0.018,0.132-0.053,0.158s-0.14,0.042-0.315,0.046
		c-0.176,0.005-0.412,0.007-0.71,0.007V45.339z"/>
</g>
<g>
	<path fill="#FFFFFF" d="M268.119,53.956c-0.303-0.157-0.454-0.337-0.454-0.539c0-0.114,0.023-0.241,0.072-0.382
		c0.048-0.14,0.116-0.268,0.204-0.381c0.342,0.307,0.793,0.46,1.354,0.46c0.868,0,1.303-0.447,1.303-1.342
		c0-0.315-0.058-0.599-0.171-0.849c-0.114-0.25-0.316-0.546-0.605-0.888l-1.315-1.539c-0.299-0.359-0.511-0.687-0.638-0.98
		c-0.128-0.293-0.191-0.599-0.191-0.914c0-0.57,0.199-1.026,0.599-1.368s0.954-0.513,1.664-0.513c0.588,0,1.021,0.059,1.303,0.178
		c0.28,0.118,0.421,0.278,0.421,0.479c0,0.22-0.088,0.421-0.264,0.605c-0.096-0.079-0.265-0.151-0.506-0.217
		c-0.241-0.066-0.502-0.099-0.783-0.099c-0.395,0-0.708,0.079-0.94,0.236c-0.232,0.158-0.349,0.382-0.349,0.671
		c0,0.229,0.048,0.437,0.145,0.625s0.25,0.414,0.461,0.678l1.434,1.618c0.333,0.395,0.563,0.759,0.69,1.092s0.191,0.71,0.191,1.131
		c0,0.746-0.183,1.345-0.546,1.796c-0.364,0.452-0.963,0.678-1.796,0.678C268.849,54.193,268.421,54.114,268.119,53.956z"/>
</g>
<g>
	<path fill="#FFFFFF" d="M274.145,53.101h2.263c0,0.254-0.003,0.46-0.007,0.618c-0.005,0.157-0.021,0.254-0.053,0.289
		c-0.03,0.035-0.081,0.053-0.151,0.053h-3.104v-8.998c0-0.035,0.014-0.079,0.04-0.132s0.083-0.079,0.171-0.079h3.157
		c0,0.246-0.003,0.448-0.007,0.605c-0.005,0.158-0.02,0.257-0.046,0.296c-0.026,0.04-0.075,0.06-0.145,0.06h-2.118v2.749h1.986
		c0,0.237-0.002,0.435-0.007,0.592c-0.004,0.158-0.02,0.262-0.046,0.31s-0.074,0.072-0.145,0.072h-1.789V53.101z"/>
</g>
<g>
	<path fill="#FFFFFF" d="M281.426,44.905c0.034-0.026,0.14-0.041,0.315-0.046c0.175-0.004,0.407-0.007,0.697-0.007v8.998
		c0,0.141-0.075,0.211-0.224,0.211h-0.789l-1.514-3.617c-0.21-0.562-0.627-1.812-1.249-3.75c0.034,0.378,0.065,1.009,0.092,1.895
		s0.039,1.574,0.039,2.065v3.196c0,0.079-0.015,0.132-0.046,0.158c-0.03,0.026-0.134,0.042-0.309,0.046
		c-0.176,0.005-0.408,0.007-0.697,0.007v-8.998c0-0.141,0.069-0.211,0.21-0.211h0.803l1.486,3.553
		c0.114,0.307,0.438,1.267,0.974,2.881c0.035,0.104,0.132,0.39,0.289,0.854v-0.039c-0.044-0.342-0.076-0.963-0.099-1.861
		c-0.021-0.899-0.032-1.59-0.032-2.072v-3.104C281.373,44.984,281.391,44.931,281.426,44.905z M280.188,43.932
		c-0.097-0.062-0.192-0.149-0.289-0.264c-0.088-0.097-0.162-0.166-0.224-0.21s-0.141-0.066-0.237-0.066
		c-0.122,0-0.226,0.031-0.309,0.093c-0.084,0.061-0.171,0.146-0.264,0.256c-0.092,0.11-0.16,0.165-0.203,0.165
		c-0.088,0-0.169-0.04-0.244-0.119c-0.074-0.078-0.136-0.159-0.184-0.243c-0.049-0.083-0.077-0.138-0.086-0.164
		c0.211-0.342,0.445-0.592,0.704-0.75s0.52-0.237,0.782-0.237c0.132,0,0.237,0.026,0.316,0.079s0.171,0.132,0.276,0.237
		c0.096,0.105,0.184,0.184,0.263,0.236s0.176,0.079,0.289,0.079c0.176,0,0.31-0.033,0.401-0.099c0.093-0.065,0.18-0.151,0.264-0.257
		c0.083-0.104,0.146-0.157,0.19-0.157c0.07,0,0.132,0.044,0.185,0.131c0.053,0.088,0.096,0.181,0.131,0.276
		c0.035,0.097,0.058,0.158,0.066,0.185c-0.035,0.079-0.119,0.19-0.25,0.335c-0.132,0.146-0.301,0.279-0.507,0.401
		c-0.206,0.123-0.428,0.185-0.664,0.185C280.421,44.024,280.285,43.993,280.188,43.932z"/>
</g>
<g>
	<path fill="#FFFFFF" d="M284.833,53.778c-0.338-0.276-0.586-0.758-0.743-1.446c-0.158-0.688-0.237-1.664-0.237-2.928
		c0-1.157,0.09-2.078,0.27-2.762c0.18-0.685,0.454-1.176,0.822-1.474s0.847-0.447,1.434-0.447c0.579,0,1.035,0.143,1.368,0.428
		c0.334,0.285,0.577,0.761,0.73,1.427c0.153,0.667,0.23,1.597,0.23,2.789c0,1.201-0.086,2.153-0.257,2.854
		c-0.171,0.702-0.437,1.206-0.796,1.513c-0.359,0.308-0.833,0.461-1.421,0.461C285.638,54.193,285.17,54.054,284.833,53.778z
		 M287.036,52.732c0.185-0.245,0.317-0.636,0.401-1.17c0.083-0.535,0.125-1.259,0.125-2.171s-0.035-1.622-0.105-2.131
		s-0.193-0.877-0.368-1.105c-0.176-0.228-0.421-0.342-0.736-0.342c-0.316,0-0.568,0.125-0.757,0.375s-0.327,0.653-0.414,1.21
		c-0.088,0.557-0.132,1.313-0.132,2.27c0,0.842,0.037,1.511,0.111,2.006c0.075,0.496,0.2,0.857,0.375,1.085
		c0.176,0.229,0.421,0.343,0.737,0.343C286.598,53.101,286.852,52.978,287.036,52.732z"/>
</g>
<g>
	<path fill="#FFFFFF" d="M123.896,104.502c-0.369-0.244-0.66-0.743-0.874-1.498c-0.213-0.754-0.319-1.854-0.319-3.301
		c0-1.654,0.15-2.929,0.452-3.823s0.674-1.493,1.116-1.795c0.441-0.302,0.944-0.452,1.506-0.452c0.52,0,0.895,0.083,1.123,0.25
		c0.229,0.166,0.344,0.369,0.344,0.608c0,0.28-0.067,0.536-0.203,0.765c-0.322-0.26-0.66-0.391-1.014-0.391
		c-0.386,0-0.724,0.123-1.015,0.367c-0.292,0.244-0.528,0.715-0.71,1.412c-0.183,0.697-0.273,1.696-0.273,2.996
		c0,1.021,0.063,1.811,0.188,2.372c0.125,0.563,0.302,0.947,0.53,1.155s0.51,0.313,0.843,0.313c0.291,0,0.567-0.05,0.827-0.148
		s0.468-0.216,0.624-0.352c0.125,0.271,0.188,0.525,0.188,0.765c0,0.313-0.182,0.577-0.546,0.796s-0.827,0.328-1.39,0.328
		C124.73,104.87,124.265,104.747,123.896,104.502z"/>
</g>
<g>
	<path fill="#FFFFFF" d="M129.787,94.367c0-0.208,0.021-0.349,0.063-0.422c0.041-0.072,0.138-0.116,0.288-0.132
		c0.151-0.016,0.461-0.023,0.929-0.023v10.674c0,0.094-0.021,0.156-0.063,0.188c-0.041,0.031-0.166,0.05-0.374,0.055
		c-0.208,0.006-0.489,0.008-0.843,0.008V94.367z"/>
</g>
<g>
	<path fill="#FFFFFF" d="M134.976,104.432c-0.411-0.291-0.682-0.673-0.812-1.146s-0.195-1.063-0.195-1.771v-7.46
		c0-0.094,0.019-0.156,0.055-0.187c0.037-0.031,0.161-0.053,0.375-0.063c0.213-0.011,0.502-0.016,0.866-0.016v7.771
		c0,0.718,0.099,1.254,0.296,1.607c0.198,0.354,0.604,0.53,1.218,0.53c0.26,0,0.52-0.025,0.78-0.078
		c0.26-0.052,0.458-0.114,0.593-0.187v-9.38c0-0.094,0.021-0.156,0.063-0.187c0.042-0.031,0.166-0.053,0.375-0.063
		c0.208-0.011,0.488-0.016,0.843-0.016v10.519c-0.219,0.146-0.575,0.275-1.069,0.39s-1.022,0.172-1.584,0.172
		C135.987,104.87,135.387,104.723,134.976,104.432z"/>
</g>
<g>
	<path fill="#FFFFFF" d="M142.178,94.085c0-0.104,0.031-0.18,0.094-0.226c0.063-0.047,0.172-0.07,0.327-0.07h1.529
		c0.708,0,1.28,0.147,1.717,0.444c0.438,0.297,0.768,0.802,0.991,1.514c0.224,0.713,0.336,1.693,0.336,2.942
		c0,1.498-0.117,2.687-0.352,3.565s-0.575,1.509-1.022,1.889s-1.004,0.569-1.67,0.569h-1.95V94.085z M144.159,103.511
		c0.313,0,0.583-0.122,0.812-0.366c0.229-0.244,0.416-0.729,0.563-1.451c0.146-0.724,0.218-1.767,0.218-3.129
		c0-0.947-0.057-1.683-0.171-2.209c-0.115-0.524-0.286-0.892-0.516-1.1c-0.229-0.208-0.53-0.313-0.905-0.313h-0.718v8.567H144.159z"
		/>
</g>
<g>
	<path fill="#FFFFFF" d="M155.458,104.682c-0.072,0.041-0.229,0.063-0.468,0.063c-0.281,0-0.53-0.011-0.749-0.031l-0.655-2.778
		h-2.716l-0.608,2.56c-0.031,0.094-0.081,0.159-0.148,0.195s-0.216,0.055-0.444,0.055c-0.219,0-0.479-0.016-0.78-0.047l2.793-10.737
		c0.031-0.146,0.188-0.218,0.469-0.218c0.239,0,0.437,0.016,0.593,0.047l2.793,10.689
		C155.558,104.573,155.531,104.641,155.458,104.682z M153.305,100.796l-0.53-2.247c-0.302-1.27-0.484-2.273-0.547-3.013
		c-0.114,0.927-0.302,1.931-0.562,3.013l-0.53,2.247H153.305z"/>
</g>
<g>
	<path fill="#FFFFFF" d="M157.799,94.085c0-0.104,0.031-0.18,0.094-0.226c0.063-0.047,0.172-0.07,0.328-0.07h1.529
		c0.707,0,1.279,0.147,1.717,0.444c0.437,0.297,0.767,0.802,0.991,1.514c0.224,0.713,0.335,1.693,0.335,2.942
		c0,1.498-0.117,2.687-0.351,3.565c-0.234,0.879-0.575,1.509-1.022,1.889s-1.004,0.569-1.67,0.569h-1.951V94.085z M159.781,103.511
		c0.313,0,0.582-0.122,0.812-0.366c0.229-0.244,0.416-0.729,0.562-1.451c0.146-0.724,0.219-1.767,0.219-3.129
		c0-0.947-0.058-1.683-0.172-2.209c-0.114-0.524-0.286-0.892-0.515-1.1c-0.229-0.208-0.531-0.313-0.905-0.313h-0.718v8.567H159.781z
		"/>
</g>
<g>
	<path fill="#FFFFFF" d="M172.102,101.717c0.286,0.749,0.466,1.654,0.538,2.715c0,0.125-0.036,0.209-0.108,0.25
		c-0.073,0.041-0.25,0.063-0.531,0.063c-0.114,0-0.358-0.011-0.733-0.031c-0.073-1.145-0.236-2.078-0.491-2.802
		c-0.255-0.723-0.518-1.271-0.788-1.646c-0.073,0.01-0.178,0.016-0.313,0.016h-0.562v4.182c0,0.094-0.019,0.156-0.055,0.188
		c-0.037,0.031-0.159,0.05-0.367,0.055c-0.208,0.006-0.483,0.008-0.827,0.008V94.039c0-0.041,0.016-0.094,0.047-0.155
		c0.031-0.063,0.099-0.094,0.203-0.094h1.545c0.988,0,1.714,0.244,2.177,0.733s0.695,1.27,0.695,2.341
		c0,1.529-0.453,2.554-1.358,3.074C171.506,100.375,171.815,100.968,172.102,101.717z M169.8,99.111c0.458,0,0.796-0.18,1.015-0.538
		c0.218-0.359,0.327-0.944,0.327-1.756c0-0.635-0.096-1.113-0.288-1.436c-0.193-0.322-0.513-0.484-0.96-0.484h-0.78v4.214H169.8z"/>
</g>
<g>
	<path fill="#FFFFFF" d="M176.479,103.574h2.684c0,0.303-0.003,0.547-0.008,0.734c-0.005,0.187-0.025,0.302-0.063,0.343
		c-0.036,0.042-0.096,0.063-0.179,0.063h-3.684V94.039c0-0.041,0.016-0.094,0.047-0.155c0.031-0.063,0.099-0.094,0.203-0.094h3.745
		c0,0.291-0.003,0.53-0.008,0.718c-0.005,0.187-0.023,0.304-0.055,0.351s-0.088,0.07-0.172,0.07h-2.512v3.262h2.356
		c0,0.281-0.003,0.515-0.008,0.702c-0.006,0.188-0.023,0.31-0.055,0.367c-0.031,0.057-0.089,0.086-0.172,0.086h-2.122V103.574z"/>
</g>
<g>
	<path fill="#FFFFFF" d="M187.716,104.682c-0.073,0.041-0.229,0.063-0.469,0.063c-0.28,0-0.53-0.011-0.749-0.031l-0.655-2.778
		h-2.716l-0.608,2.56c-0.031,0.094-0.08,0.159-0.148,0.195c-0.067,0.036-0.216,0.055-0.444,0.055c-0.219,0-0.479-0.016-0.78-0.047
		l2.793-10.737c0.031-0.146,0.188-0.218,0.469-0.218c0.239,0,0.437,0.016,0.593,0.047l2.794,10.689
		C187.814,104.573,187.788,104.641,187.716,104.682z M185.562,100.796l-0.53-2.247c-0.302-1.27-0.483-2.273-0.546-3.013
		c-0.115,0.927-0.302,1.931-0.563,3.013l-0.53,2.247H185.562z"/>
</g>
<g>
	<path fill="#FFFFFF" d="M190.056,94.148c0-0.135,0.021-0.224,0.063-0.265c0.042-0.042,0.135-0.068,0.281-0.078
		c0.146-0.011,0.452-0.016,0.921-0.016v9.737h2.684v0.937c0,0.094-0.021,0.159-0.063,0.195c-0.041,0.037-0.104,0.055-0.187,0.055
		h-3.699V94.148z"/>
</g>
<g>
	<path fill="#FFFFFF" d="M131.179,61.904c1.01,0.433,1.778,1.189,2.308,2.271c0.528,1.082,0.793,2.584,0.793,4.507
		c0,2.98-0.644,5.071-1.929,6.272c-1.286,1.202-2.926,1.803-4.921,1.803h-0.288v9.013c0,0.265-0.061,0.438-0.181,0.522
		s-0.511,0.139-1.172,0.162c-0.661,0.024-1.544,0.036-2.649,0.036V61.976c0-0.265,0.048-0.451,0.145-0.56
		c0.096-0.107,0.288-0.162,0.577-0.162h3.389C128.859,61.254,130.17,61.471,131.179,61.904z M129.305,72.034
		c0.312-0.673,0.469-1.959,0.469-3.857c0-1.177-0.127-2.049-0.379-2.613s-0.667-0.848-1.244-0.848h-1.009v8.328h0.757
		C128.523,73.043,128.992,72.707,129.305,72.034z"/>
</g>
<g>
	<path fill="#FFFFFF" d="M146.794,81.948c0.216,0.721,0.324,1.61,0.324,2.667c0,0.697-0.486,1.244-1.46,1.641
		s-2.193,0.595-3.659,0.595c-1.803,0-3.185-0.618-4.146-1.856c-0.962-1.237-1.442-3.454-1.442-6.651
		c0-2.739,0.282-4.866,0.848-6.381c0.564-1.514,1.303-2.535,2.217-3.064c0.913-0.528,2.006-0.793,3.28-0.793
		c3.076,0,4.614,1.959,4.614,5.876c0,2.092-0.168,3.798-0.505,5.119c-1.369,0.289-3.46,0.457-6.272,0.505
		c0.072,1.226,0.276,2.091,0.613,2.596c0.336,0.505,0.925,0.757,1.767,0.757C144.126,82.957,145.399,82.621,146.794,81.948z
		 M141.044,72.754c-0.253,0.793-0.403,2.031-0.451,3.714c1.346,0,2.247-0.108,2.704-0.325c0.12-0.36,0.18-0.984,0.18-1.874
		c0-1.105-0.084-1.833-0.252-2.182c-0.168-0.348-0.493-0.522-0.974-0.522C141.698,71.565,141.296,71.961,141.044,72.754z"/>
</g>
<g>
	<path fill="#FFFFFF" d="M153.414,86.255c-0.829-0.396-1.502-1.22-2.019-2.47c-0.518-1.249-0.775-3.076-0.775-5.479
		c0-3.509,0.45-6.086,1.352-7.732c0.901-1.646,2.109-2.47,3.623-2.47c0.89,0,1.599,0.217,2.127,0.649v-6.994
		c0-0.601,0.103-1.015,0.307-1.243s0.553-0.373,1.046-0.433c0.492-0.061,1.375-0.091,2.649-0.091v25.776
		c-1.635,0.721-3.389,1.081-5.264,1.081C155.258,86.85,154.243,86.652,153.414,86.255z M157.722,82.957V71.709
		c-0.192-0.12-0.456-0.181-0.793-0.181c-0.313,0-0.601,0.126-0.865,0.379c-0.265,0.252-0.486,0.842-0.667,1.767
		c-0.18,0.925-0.271,2.301-0.271,4.127c0,2.092,0.108,3.533,0.325,4.326c0.216,0.793,0.564,1.189,1.045,1.189
		C157.001,83.317,157.409,83.198,157.722,82.957z"/>
</g>
<g>
	<path fill="#FFFFFF" d="M165.802,69.726c1.635-1.081,3.305-1.622,5.012-1.622c0.937,0,1.573,0.139,1.91,0.415
		s0.505,0.739,0.505,1.388c0,0.793-0.133,1.563-0.396,2.308c-0.385-0.192-0.829-0.289-1.334-0.289c-0.24,0-0.505,0.049-0.793,0.145
		c-0.288,0.097-0.553,0.24-0.793,0.433l-0.036,13.267c0,0.265-0.061,0.438-0.181,0.522s-0.511,0.139-1.171,0.162
		c-0.662,0.024-1.568,0.036-2.723,0.036V69.726z"/>
</g>
<g>
	<path fill="#FFFFFF" d="M177.74,86.147c-0.793-0.469-1.389-1.375-1.785-2.722c-0.396-1.346-0.595-3.34-0.595-5.984
		c0-6.224,1.995-9.337,5.984-9.337c1.346,0,2.421,0.271,3.227,0.812c0.805,0.541,1.406,1.473,1.803,2.794
		c0.396,1.322,0.595,3.185,0.595,5.588c0,3.389-0.486,5.828-1.46,7.317c-0.974,1.491-2.458,2.235-4.452,2.235
		C179.639,86.85,178.533,86.616,177.74,86.147z M181.886,83.119c0.192-0.275,0.354-0.865,0.486-1.766
		c0.132-0.901,0.198-2.218,0.198-3.948c0-1.754-0.036-3.046-0.107-3.875c-0.072-0.829-0.205-1.388-0.396-1.677
		c-0.193-0.288-0.481-0.433-0.865-0.433c-0.457,0-0.812,0.409-1.063,1.227c-0.253,0.817-0.379,2.403-0.379,4.758
		c0,1.803,0.054,3.143,0.162,4.02c0.108,0.878,0.258,1.448,0.451,1.713c0.191,0.265,0.456,0.396,0.793,0.396
		C181.453,83.534,181.693,83.396,181.886,83.119z"/>
</g>
<g>
	<path fill="#FFFFFF" d="M209.902,86.381c-0.24,0.12-0.745,0.181-1.515,0.181c-0.841,0-1.61-0.024-2.307-0.072l-1.189-5.768h-4.867
		l-1.045,5.083c-0.072,0.288-0.211,0.486-0.415,0.595c-0.204,0.107-0.68,0.162-1.424,0.162c-0.842,0-1.683-0.049-2.523-0.145
		l6.021-24.478c0.096-0.505,0.636-0.757,1.622-0.757c0.816,0,1.454,0.048,1.91,0.144l6.021,24.515
		C210.238,86.082,210.143,86.261,209.902,86.381z M204.134,77.117l-0.721-3.389c-0.36-1.73-0.673-4.002-0.938-6.813
		c-0.337,3.053-0.661,5.323-0.973,6.813l-0.722,3.389H204.134z"/>
</g>
<g>
	<path fill="#FFFFFF" d="M213.26,61.759c0-0.601,0.108-1.015,0.324-1.243c0.217-0.229,0.571-0.373,1.063-0.433
		c0.493-0.061,1.364-0.091,2.614-0.091v25.776c0,0.265-0.061,0.438-0.181,0.522s-0.505,0.139-1.153,0.162
		c-0.649,0.024-1.538,0.036-2.668,0.036V61.759z"/>
</g>
<g>
	<path fill="#FFFFFF" d="M236.932,68.663c0.589,0.373,0.974,0.896,1.154,1.568c0.18,0.674,0.27,1.599,0.27,2.776v12.762
		c0,0.265-0.066,0.438-0.198,0.522s-0.528,0.139-1.189,0.162c-0.661,0.024-1.532,0.036-2.613,0.036V73.115
		c0-0.576-0.072-0.973-0.217-1.189c-0.144-0.216-0.433-0.324-0.865-0.324c-0.504,0-0.961,0.108-1.369,0.324v13.844
		c0,0.265-0.055,0.438-0.163,0.522c-0.107,0.084-0.48,0.139-1.117,0.162c-0.637,0.024-1.509,0.036-2.613,0.036h-0.036h-0.072V72.971
		c0-0.601-0.066-0.991-0.198-1.172c-0.133-0.181-0.415-0.271-0.848-0.271s-0.9,0.145-1.405,0.433v13.808
		c0,0.265-0.066,0.438-0.198,0.522c-0.133,0.084-0.523,0.139-1.172,0.162c-0.648,0.024-1.526,0.036-2.632,0.036V69.293
		c1.706-0.793,3.557-1.189,5.552-1.189c1.298,0,2.308,0.324,3.028,0.974c0.625-0.313,1.315-0.553,2.073-0.721
		c0.757-0.168,1.483-0.253,2.181-0.253C235.46,68.104,236.343,68.291,236.932,68.663z"/>
</g>
<g>
	<path fill="#FFFFFF" d="M244.634,86.147c-0.793-0.469-1.389-1.375-1.785-2.722c-0.396-1.346-0.595-3.34-0.595-5.984
		c0-6.224,1.995-9.337,5.984-9.337c1.346,0,2.421,0.271,3.227,0.812c0.805,0.541,1.406,1.473,1.803,2.794
		c0.396,1.322,0.595,3.185,0.595,5.588c0,3.389-0.486,5.828-1.46,7.317c-0.974,1.491-2.458,2.235-4.452,2.235
		C246.532,86.85,245.427,86.616,244.634,86.147z M248.779,83.119c0.192-0.275,0.354-0.865,0.486-1.766
		c0.132-0.901,0.198-2.218,0.198-3.948c0-1.754-0.036-3.046-0.107-3.875c-0.072-0.829-0.205-1.388-0.396-1.677
		c-0.193-0.288-0.481-0.433-0.865-0.433c-0.457,0-0.812,0.409-1.063,1.227c-0.253,0.817-0.379,2.403-0.379,4.758
		c0,1.803,0.054,3.143,0.162,4.02c0.108,0.878,0.258,1.448,0.451,1.713c0.191,0.265,0.456,0.396,0.793,0.396
		C248.347,83.534,248.587,83.396,248.779,83.119z"/>
</g>
<g>
	<path fill="#FFFFFF" d="M259.87,86.255c-0.829-0.396-1.502-1.22-2.019-2.47c-0.518-1.249-0.775-3.076-0.775-5.479
		c0-3.509,0.451-6.086,1.353-7.732c0.901-1.646,2.108-2.47,3.623-2.47c0.889,0,1.598,0.217,2.127,0.649v-6.994
		c0-0.601,0.102-1.015,0.306-1.243s0.553-0.373,1.046-0.433c0.492-0.061,1.375-0.091,2.649-0.091v25.776
		c-1.635,0.721-3.389,1.081-5.263,1.081C261.715,86.85,260.699,86.652,259.87,86.255z M264.179,82.957V71.709
		c-0.193-0.12-0.457-0.181-0.794-0.181c-0.313,0-0.601,0.126-0.865,0.379c-0.265,0.252-0.486,0.842-0.666,1.767
		c-0.181,0.925-0.271,2.301-0.271,4.127c0,2.092,0.107,3.533,0.324,4.326c0.216,0.793,0.564,1.189,1.045,1.189
		C263.457,83.317,263.865,83.198,264.179,82.957z"/>
</g>
<g>
	<path fill="#FFFFFF" d="M274.17,86.147c-0.793-0.469-1.389-1.375-1.785-2.722c-0.396-1.346-0.595-3.34-0.595-5.984
		c0-6.224,1.995-9.337,5.984-9.337c1.346,0,2.421,0.271,3.227,0.812c0.805,0.541,1.406,1.473,1.803,2.794
		c0.396,1.322,0.595,3.185,0.595,5.588c0,3.389-0.486,5.828-1.46,7.317c-0.974,1.491-2.458,2.235-4.452,2.235
		C276.068,86.85,274.963,86.616,274.17,86.147z M275.413,66.211c-0.229-0.324-0.402-0.66-0.522-1.009s-0.192-0.583-0.216-0.703
		c0.384-0.528,0.919-1.123,1.604-1.785c0.686-0.66,1.34-1.237,1.965-1.73c0.625-0.492,1.01-0.738,1.153-0.738
		c0.409,0,0.787,0.307,1.136,0.919c0.349,0.613,0.583,1.292,0.703,2.037c-0.409,0.48-1.292,1.178-2.649,2.091
		c-1.358,0.913-2.146,1.382-2.361,1.406C275.912,66.699,275.642,66.536,275.413,66.211z M278.315,83.119
		c0.192-0.275,0.354-0.865,0.486-1.766c0.132-0.901,0.198-2.218,0.198-3.948c0-1.754-0.036-3.046-0.107-3.875
		c-0.072-0.829-0.205-1.388-0.396-1.677c-0.193-0.288-0.481-0.433-0.865-0.433c-0.457,0-0.812,0.409-1.063,1.227
		c-0.253,0.817-0.379,2.403-0.379,4.758c0,1.803,0.054,3.143,0.162,4.02c0.108,0.878,0.258,1.448,0.451,1.713
		c0.191,0.265,0.456,0.396,0.793,0.396C277.883,83.534,278.123,83.396,278.315,83.119z"/>
</g>
<g>
	<path fill="#FFFFFF" d="M288.812,84.868l-3.101-15.213c-0.048-0.289-0.072-0.469-0.072-0.541c0-0.217,0.108-0.366,0.325-0.451
		c0.216-0.084,0.685-0.138,1.405-0.162c0.722-0.023,1.622-0.036,2.704-0.036l0.685,5.228c0.168,1.298,0.325,2.908,0.469,4.831
		c0.145,1.923,0.229,3.185,0.253,3.785h0.071c0.024-0.601,0.108-1.868,0.253-3.804c0.144-1.934,0.3-3.551,0.469-4.849l0.505-4.397
		c0.048-0.289,0.138-0.48,0.27-0.577c0.132-0.096,0.444-0.156,0.938-0.181c0.492-0.023,1.496-0.036,3.011-0.036L293.39,86.49
		c-0.697,0.12-1.671,0.181-2.92,0.181C289.628,86.67,289.075,86.07,288.812,84.868z"/>
</g>
<g>
	<path fill="#FFFFFF" d="M301.849,86.454c-0.733-0.264-1.328-0.812-1.784-1.641c-0.457-0.829-0.686-2.024-0.686-3.587
		c0-2.259,0.385-3.814,1.154-4.668c0.769-0.853,1.778-1.28,3.027-1.28c0.361,0,0.763,0.043,1.208,0.127
		c0.444,0.084,0.812,0.222,1.1,0.414v-2.487c0-0.48-0.114-0.829-0.343-1.046c-0.229-0.216-0.619-0.324-1.171-0.324
		c-0.674,0-1.419,0.072-2.235,0.217c-0.817,0.144-1.526,0.324-2.127,0.54c-0.36-0.696-0.541-1.465-0.541-2.307
		c0-0.24,0.048-0.48,0.145-0.721c0.096-0.24,0.216-0.421,0.36-0.541c0.312-0.24,0.961-0.475,1.946-0.703s2.127-0.343,3.425-0.343
		c1.658,0,2.83,0.331,3.516,0.991c0.685,0.662,1.027,1.797,1.027,3.407v1.694c0,5.889-0.061,9.722-0.181,11.5
		c-1.298,0.77-3.028,1.153-5.191,1.153C303.465,86.85,302.581,86.718,301.849,86.454z M305.796,83.209
		c0.048-0.553,0.072-2.115,0.072-4.687c-0.24-0.217-0.564-0.324-0.974-0.324c-0.433,0-0.757,0.21-0.973,0.631
		c-0.217,0.42-0.325,1.184-0.325,2.289c0,0.889,0.084,1.52,0.253,1.893c0.168,0.373,0.48,0.559,0.938,0.559
		C305.243,83.57,305.58,83.45,305.796,83.209z"/>
</g>
<g>
	<path fill="#FFFFFF" d="M313.841,69.726c1.634-1.081,3.305-1.622,5.011-1.622c0.938,0,1.574,0.139,1.911,0.415
		c0.336,0.276,0.505,0.739,0.505,1.388c0,0.793-0.133,1.563-0.396,2.308c-0.385-0.192-0.829-0.289-1.334-0.289
		c-0.24,0-0.505,0.049-0.793,0.145c-0.289,0.097-0.554,0.24-0.793,0.433l-0.036,13.267c0,0.265-0.061,0.438-0.181,0.522
		s-0.511,0.139-1.172,0.162c-0.661,0.024-1.568,0.036-2.722,0.036V69.726z"/>
</g>
</svg>
