<?xml version="1.0" encoding="UTF-8" standalone="no"?>
<svg
   xmlns:dc="http://purl.org/dc/elements/1.1/"
   xmlns:cc="http://creativecommons.org/ns#"
   xmlns:rdf="http://www.w3.org/1999/02/22-rdf-syntax-ns#"
   xmlns:svg="http://www.w3.org/2000/svg"
   xmlns="http://www.w3.org/2000/svg"
   id="svg8"
   version="1.1"
   viewBox="0 0 355.245 176.17499">
  <metadata
     id="metadata14">
    <rdf:RDF>
      <cc:Work
         rdf:about="">
        <dc:format>image/svg+xml</dc:format>
        <dc:type
           rdf:resource="http://purl.org/dc/dcmitype/StillImage" />
        <dc:title></dc:title>
      </cc:Work>
    </rdf:RDF>
  </metadata>
  <defs
     id="defs12" />
  <g
     id="g6"
     fill-rule="evenodd"
     clip-rule="evenodd">
    <path
       style="fill-opacity:1"
       id="path2"
       fill="#ff33cc"
       d="M62.032 144.492H47.216v-5.627h-.188c-2.876 4.877-8.065 7.314-15.568 7.314-7.816 0-14.13-2.657-18.945-7.97-4.75-5.377-7.126-12.004-7.126-19.882 0-7.753 2.374-14.285 7.125-19.6 4.815-5.376 11.036-8.065 18.663-8.065 6.127 0 11.223 2.063 15.286 6.19V75.094h15.568v69.397zm-14.723-26.26c0-3.75-1.25-6.845-3.752-9.283-2.5-2.5-5.626-3.75-9.378-3.75-3.75 0-6.91 1.25-9.472 3.75-2.5 2.437-3.75 5.532-3.75 9.283 0 3.877 1.188 7.096 3.563 9.66 2.44 2.5 5.596 3.75 9.473 3.75 3.876 0 7.064-1.25 9.566-3.75 2.5-2.563 3.75-5.783 3.75-9.66zM121.49 119.078c0 1.5-.124 2.876-.375 4.127H82.102c.438 3 1.783 5.408 4.034 7.22 2.312 1.75 5.033 2.627 8.158 2.627 3.752 0 6.91-1.626 9.472-4.877h15.943c-2.313 5.377-5.72 9.722-10.223 13.036-4.44 3.312-9.503 4.97-15.193 4.97-7.627 0-14.13-2.69-19.506-8.064-5.377-5.376-8.065-11.878-8.065-19.506s2.656-14.192 7.97-19.695c5.315-5.502 11.755-8.252 19.32-8.252 7.878 0 14.41 2.75 19.6 8.252 5.253 5.502 7.878 12.224 7.878 20.163zm-15.566-6.377c-.625-2.75-2.032-4.907-4.22-6.47-2.19-1.626-4.72-2.438-7.597-2.438-2.876 0-5.408.813-7.596 2.438-2.187 1.562-3.595 3.72-4.22 6.47h23.634zM165.38 128.55c0 5.564-2.094 9.908-6.282 13.035-4.19 3.124-9.16 4.688-14.91 4.688-5.69 0-10.506-1.5-14.444-4.5-3.94-3-6.19-7.252-6.753-12.754h15.476c.25 1.56.906 2.75 1.97 3.562 1.062.813 2.374 1.22 3.938 1.22 1.312 0 2.53-.344 3.656-1.033 1.19-.75 1.783-1.75 1.783-3.002 0-.5-.094-.97-.282-1.406-.124-.438-.342-.844-.656-1.22-.312-.374-.625-.686-.938-.936-.25-.25-.657-.5-1.22-.75-.56-.313-1-.532-1.312-.657-.25-.126-.718-.314-1.407-.563-.624-.25-1.03-.406-1.22-.47-3-1-5.25-1.78-6.75-2.343-8.252-3.002-12.38-7.534-12.38-13.6 0-5.187 2-9.346 6.002-12.47 4.063-3.128 8.784-4.69 14.16-4.69 5.44 0 10.004 1.406 13.693 4.22 3.688 2.813 5.783 6.877 6.283 12.192H148.5c-.063-2.626-1.687-3.94-4.877-3.94-1.125 0-2.156.314-3.094.938-.876.625-1.314 1.47-1.314 2.533 0 1.25.625 2.314 1.876 3.188 1.312.876 2.938 1.562 4.877 2.063 1.937.438 4.03 1.063 6.282 1.876 2.312.813 4.44 1.75 6.376 2.813 1.938 1 3.533 2.53 4.782 4.595 1.314 2.062 1.97 4.532 1.97 7.407zM184.982 86.91h-15.568V75.096h15.568V86.91zm0 57.582h-15.568V92.445h15.568v52.047zM246.408 138.21c0 7.876-1.032 13.596-3.096 17.16-2.375 4.064-6.064 7.126-11.065 9.19-4.94 2.063-10.034 3.095-15.286 3.095-10.502 0-18.1-3.407-22.79-10.223-1.75-2.563-2.812-5.252-3.187-8.065h18.006c1.562 3.44 4.594 5.158 9.096 5.158 4.127 0 7.252-1.282 9.378-3.845 2.188-2.563 3.28-6.002 3.28-10.314v-1.594h-.186c-1.312 2.438-3.282 4.283-5.907 5.532-2.625 1.25-5.41 1.875-8.346 1.875-7.69 0-14.005-2.626-18.943-7.877-4.876-5.315-7.314-11.816-7.314-19.506 0-7.816 2.438-14.443 7.315-19.882 4.876-5.44 11.19-8.16 18.944-8.16 6.814 0 11.597 2.19 14.35 6.566h.187v-4.876h15.57v45.766zm-15.567-19.507c0-3.813-1.187-7.002-3.562-9.566-2.314-2.563-5.346-3.845-9.097-3.845-3.563 0-6.564 1.282-9.003 3.845-2.375 2.5-3.563 5.533-3.563 9.096 0 3.69 1.156 6.847 3.47 9.473 2.312 2.626 5.313 3.938 9.002 3.938 3.75 0 6.814-1.22 9.19-3.657 2.377-2.44 3.565-5.532 3.565-9.284zM301.927 144.492H286.36v-28.415c0-3.44-.563-6.096-1.69-7.97-1.125-1.877-3.28-2.816-6.47-2.816-3.377 0-5.72.97-7.035 2.91-1.25 1.875-1.875 4.532-1.875 7.97v28.322h-15.568V92.445h14.536v5.533h.188c3-4.877 7.72-7.315 14.16-7.315 2.252 0 4.627.406 7.127 1.22 2.5.812 4.565 1.905 6.19 3.282 4 3.313 6.002 8.908 6.002 16.787v32.54z" />
    <path
       id="path4"
       d="M42.39 53.454c0 5.565-2.095 9.91-6.283 13.036-4.19 3.124-9.16 4.688-14.91 4.688-5.69 0-10.506-1.5-14.444-4.5-3.94-3-6.19-7.252-6.753-12.754h15.475c.25 1.563.906 2.75 1.97 3.563 1.062.813 2.374 1.22 3.938 1.22 1.312 0 2.53-.345 3.656-1.033 1.188-.75 1.782-1.75 1.782-3 0-.5-.095-.97-.282-1.408-.125-.438-.343-.844-.657-1.22-.312-.374-.625-.686-.938-.936-.25-.25-.657-.5-1.22-.75-.56-.313-1-.532-1.312-.657-.25-.125-.718-.313-1.407-.562-.624-.25-1.03-.405-1.22-.468-3-1-5.25-1.78-6.75-2.344C4.784 43.326.656 38.794.656 32.73c0-5.19 2-9.347 6.002-12.472 4.064-3.127 8.785-4.69 14.16-4.69 5.44 0 10.005 1.407 13.694 4.22 3.688 2.814 5.783 6.878 6.283 12.193H25.508c-.063-2.625-1.687-3.938-4.877-3.938-1.124 0-2.155.313-3.093.937-.875.624-1.313 1.47-1.313 2.532 0 1.25.625 2.314 1.876 3.188 1.312.876 2.938 1.563 4.877 2.064 1.938.438 4.032 1.063 6.283 1.876 2.312.813 4.44 1.75 6.376 2.813 1.938 1 3.533 2.53 4.783 4.595 1.313 2.06 1.97 4.53 1.97 7.406zM61.99 11.815H46.424V0H61.99v11.815zm0 57.58H46.424V17.35H61.99v52.046zM123.698 69.396h-14.816V63.77h-.188c-2.876 4.877-8.065 7.314-15.568 7.314-7.816 0-14.13-2.656-18.945-7.97-4.75-5.377-7.125-12.003-7.125-19.88 0-7.754 2.375-14.287 7.126-19.6 4.816-5.377 11.037-8.066 18.664-8.066 6.127 0 11.223 2.063 15.286 6.19V0h15.568v69.396zm-14.724-26.258c0-3.75-1.25-6.846-3.75-9.284-2.5-2.5-5.626-3.75-9.38-3.75-3.75 0-6.908 1.25-9.47 3.75-2.5 2.438-3.75 5.534-3.75 9.284 0 3.877 1.187 7.096 3.562 9.66 2.44 2.5 5.595 3.75 9.472 3.75 3.876 0 7.064-1.25 9.566-3.75 2.5-2.564 3.75-5.783 3.75-9.66zM183.157 43.982c0 1.5-.126 2.876-.376 4.127H143.77c.438 3 1.783 5.407 4.034 7.22 2.312 1.75 5.033 2.626 8.158 2.626 3.752 0 6.91-1.626 9.472-4.877h15.942c-2.312 5.377-5.72 9.72-10.22 13.035-4.44 3.312-9.504 4.97-15.194 4.97-7.627 0-14.13-2.69-19.506-8.064-5.378-5.375-8.065-11.878-8.065-19.505 0-7.628 2.655-14.192 7.97-19.694 5.314-5.5 11.754-8.25 19.32-8.25 7.877 0 14.41 2.75 19.6 8.25 5.25 5.502 7.877 12.223 7.877 20.162zm-15.568-6.376c-.626-2.75-2.033-4.908-4.22-6.47-2.19-1.626-4.722-2.44-7.598-2.44-2.876 0-5.408.814-7.596 2.44-2.188 1.562-3.596 3.718-4.22 6.47h23.633zM240.644 49.61c-1.5 6.377-4.782 11.565-9.847 15.567-5.064 3.94-10.878 5.907-17.444 5.907-7.75 0-14.35-2.688-19.788-8.063-5.376-5.375-8.065-11.972-8.065-19.786 0-7.69 2.657-14.224 7.972-19.6 5.313-5.376 11.815-8.065 19.505-8.065 6.753 0 12.692 2 17.82 6 5.126 4 8.377 9.284 9.753 15.85h-15.755c-2.25-4.878-6.127-7.316-11.63-7.316-3.626 0-6.532 1.282-8.722 3.845-2.188 2.562-3.28 5.688-3.28 9.376 0 3.752 1.124 6.91 3.374 9.473 2.314 2.5 5.315 3.75 9.002 3.75 5.063 0 8.815-2.313 11.254-6.94h15.85zM300.102 69.396h-15.568V63.77h-.188c-1.312 2.5-3.407 4.377-6.284 5.626-2.813 1.188-5.783 1.782-8.91 1.782-7.813 0-14.13-2.656-18.942-7.97-4.814-5.315-7.22-11.942-7.22-19.882 0-7.75 2.437-14.317 7.314-19.693 4.875-5.376 11.16-8.065 18.85-8.065 3.125 0 6.063.625 8.815 1.876 2.812 1.188 4.937 3 6.375 5.44h.188V17.35H300.1v52.046zm-15.568-26.07c0-3.814-1.25-6.97-3.75-9.473-2.438-2.5-5.565-3.75-9.38-3.75-3.75 0-6.845 1.312-9.283 3.938-2.375 2.565-3.562 5.722-3.562 9.474 0 3.626 1.25 6.72 3.75 9.284 2.5 2.563 5.565 3.845 9.19 3.845 3.75 0 6.847-1.282 9.286-3.845 2.5-2.564 3.75-5.72 3.75-9.473zM335.457 31.228c-4 .126-7.065.844-9.19 2.158-2.063 1.25-3.095 3.72-3.095 7.408v28.602h-15.568V17.35h14.63v5.532h.188c2.5-4.877 6.846-7.315 13.035-7.315v15.66zM339.022 53.454h16.223v15.942h-16.223zM0 171.495h62.032v4.68H0z" />
  </g>
</svg>
